<svg width="178" height="60" viewBox="0 0 178 60" fill="none" xmlns="http://www.w3.org/2000/svg">
<g clip-path="url(#clip0_7331_91878)">
<path d="M162.998 0H14.1571C13.7133 0 13.1214 0 12.5296 0C12.0858 0 11.6419 0 11.1981 0C10.1624 0 9.27466 0.147954 8.23899 0.295907C7.35127 0.443861 6.3156 0.739768 5.42788 1.18363C4.54016 1.62749 3.80039 2.2193 3.06063 2.95907C2.32086 3.69884 1.72905 4.43861 1.28519 5.32633C0.841329 6.21405 0.545422 7.24973 0.397469 8.13745C0.249516 9.17312 0.101562 10.2088 0.101562 11.0965C0.101562 11.5404 0.101562 11.9842 0.101562 12.4281V46.6054C0.101562 47.0493 0.101562 47.4931 0.101562 47.937C0.101562 48.9726 0.249516 49.8604 0.397469 50.896C0.545422 51.9317 0.841329 52.8194 1.28519 53.7072C1.72905 54.7428 2.32086 55.4826 3.06063 56.2224C3.80039 56.9621 4.54016 57.554 5.42788 57.9978C6.3156 58.4417 7.20332 58.7376 8.23899 58.8855C9.27466 59.0335 10.1624 59.1814 11.1981 59.1814C11.6419 59.1814 12.0858 59.1814 12.5296 59.1814C13.1214 59.1814 13.5653 59.1814 14.1571 59.1814H162.998C163.59 59.1814 164.034 59.1814 164.626 59.1814C165.069 59.1814 165.513 59.1814 165.957 59.1814C166.993 59.1814 167.881 59.0335 168.916 58.8855C169.952 58.7376 170.84 58.4417 171.727 57.9978C172.615 57.554 173.355 56.9621 174.095 56.2224C174.834 55.4826 175.426 54.7428 175.87 53.8551C176.314 52.9674 176.61 52.0797 176.758 51.044C176.906 50.0083 177.054 49.1206 177.054 48.0849C177.054 47.6411 177.054 47.1972 177.054 46.7533C177.054 46.1615 177.054 45.7177 177.054 45.1259V14.0556C177.054 13.4638 177.054 13.0199 177.054 12.4281C177.054 11.9842 177.054 11.5404 177.054 11.0965C177.054 10.0608 176.906 9.17312 176.758 8.13745C176.61 7.10177 176.314 6.21405 175.87 5.32633C174.982 3.55089 173.503 2.07135 171.727 1.18363C170.84 0.739768 169.952 0.443861 168.916 0.295907C167.881 0.147954 166.993 0 165.957 0C165.513 0 165.069 0 164.626 0C164.182 0 163.59 0 162.998 0Z" fill="white"/>
<path d="M12.5296 57.8503C12.0857 57.8503 11.6419 57.8503 11.198 57.8503C10.3103 57.8503 9.27463 57.7024 8.38691 57.5544C7.49919 57.4064 6.75943 57.1105 5.87171 56.8146C5.13194 56.3708 4.39217 55.9269 3.80036 55.3351C3.20855 54.7433 2.61674 54.0035 2.32083 53.2637C1.87697 52.524 1.72902 51.6363 1.58106 50.7485C1.43311 49.8608 1.28516 48.9731 1.28516 47.9374C1.28516 47.6415 1.28516 46.6058 1.28516 46.6058V12.4286C1.28516 12.4286 1.28516 11.3929 1.28516 11.097C1.28516 10.2092 1.43311 9.17357 1.58106 8.28585C1.72902 7.54608 2.02492 6.65836 2.46878 5.91859C2.91264 5.17882 3.3565 4.43906 3.94831 3.84724C4.54013 3.25543 5.27989 2.81157 6.01966 2.36771C6.75943 1.92385 7.64714 1.77589 8.53486 1.62794C9.42258 1.47998 10.3103 1.33203 11.346 1.33203H12.6776H164.773H166.105C166.993 1.33203 167.88 1.47998 168.916 1.62794C169.804 1.77589 170.544 2.0718 171.431 2.36771C172.911 3.10747 174.242 4.43906 174.982 5.91859C175.426 6.65836 175.574 7.54608 175.722 8.28585C175.87 9.17357 176.018 10.2092 176.018 11.097C176.018 11.5408 176.018 11.9847 176.018 12.4286C176.018 13.0204 176.018 13.4642 176.018 14.056V44.9783C176.018 45.5702 176.018 46.014 176.018 46.6058C176.018 47.0497 176.018 47.4936 176.018 47.9374C176.018 48.8251 175.87 49.7129 175.722 50.7485C175.574 51.6363 175.278 52.376 174.982 53.2637C174.538 54.0035 174.094 54.7433 173.503 55.3351C172.911 55.9269 172.171 56.5187 171.431 56.8146C170.692 57.2585 169.804 57.5544 168.916 57.5544C168.028 57.7024 167.141 57.8503 166.105 57.8503C165.661 57.8503 165.217 57.8503 164.773 57.8503H163.146H12.5296Z" fill="black"/>
<path d="M58.5327 33.6592L54.0723 46.5996H51.3755L56.9946 31.6699H58.7173L58.5327 33.6592ZM62.2652 46.5996L57.7944 33.6592L57.5996 31.6699H59.3325L64.9722 46.5996H62.2652ZM62.0498 41.0625V43.103H53.9287V41.0625H62.0498ZM68.6636 37.8735V46.5996H66.1924V35.5049H68.52L68.6636 37.8735ZM68.2227 40.6421L67.4229 40.6318C67.4297 39.8457 67.5391 39.1245 67.751 38.4683C67.9697 37.812 68.2705 37.248 68.6533 36.7764C69.043 36.3047 69.5078 35.9424 70.0479 35.6894C70.5879 35.4297 71.1895 35.2998 71.8526 35.2998C72.3858 35.2998 72.8677 35.375 73.2984 35.5254C73.7359 35.6689 74.1084 35.9048 74.416 36.2329C74.7305 36.561 74.9698 36.9883 75.1338 37.5146C75.2979 38.0342 75.3799 38.6733 75.3799 39.4321V46.5996H72.8985V39.4219C72.8985 38.8887 72.8199 38.4683 72.6626 38.1606C72.5122 37.8462 72.2901 37.624 71.9961 37.4941C71.709 37.3574 71.3501 37.289 70.9195 37.289C70.4956 37.289 70.1162 37.3779 69.7813 37.5557C69.4463 37.7334 69.1626 37.9761 68.9302 38.2837C68.7046 38.5913 68.5303 38.9468 68.4073 39.3501C68.2842 39.7534 68.2227 40.1841 68.2227 40.6421ZM84.67 44.3027V30.8496H87.1514V46.5996H84.9058L84.67 44.3027ZM77.4512 41.1753V40.96C77.4512 40.1191 77.5503 39.3535 77.7486 38.6631C77.9468 37.9658 78.2339 37.3677 78.6099 36.8686C78.9859 36.3628 79.4439 35.9765 79.9839 35.7099C80.524 35.4365 81.1324 35.2998 81.8091 35.2998C82.479 35.2998 83.0669 35.4297 83.5728 35.6894C84.0787 35.9492 84.5093 36.3218 84.8648 36.8071C85.2203 37.2856 85.504 37.8599 85.7159 38.5298C85.9278 39.1929 86.0782 39.9311 86.167 40.7446V41.4316C86.0782 42.2246 85.9278 42.9492 85.7159 43.6055C85.504 44.2617 85.2203 44.8291 84.8648 45.3076C84.5093 45.7861 84.0752 46.1553 83.5625 46.415C83.0567 46.6748 82.4654 46.8047 81.7886 46.8047C81.1187 46.8047 80.5137 46.6646 79.9737 46.3843C79.4405 46.104 78.9859 45.7109 78.6099 45.2051C78.2339 44.6992 77.9468 44.1045 77.7486 43.4209C77.5503 42.7305 77.4512 41.9819 77.4512 41.1753ZM79.9224 40.96V41.1753C79.9224 41.6811 79.9668 42.1528 80.0557 42.5903C80.1514 43.0278 80.2984 43.4141 80.4966 43.749C80.6949 44.0771 80.9512 44.3369 81.2657 44.5283C81.587 44.7129 81.9698 44.8052 82.4141 44.8052C82.9747 44.8052 83.4361 44.6821 83.7984 44.436C84.1607 44.1899 84.4444 43.8584 84.6495 43.4414C84.8614 43.0176 85.0049 42.5459 85.0801 42.0264V40.1704C85.0391 39.7671 84.9537 39.3911 84.8238 39.0425C84.7007 38.6938 84.5332 38.3896 84.3213 38.1299C84.1094 37.8633 83.8462 37.6582 83.5318 37.5146C83.2242 37.3642 82.8584 37.289 82.4346 37.289C81.9834 37.289 81.6006 37.3848 81.2862 37.5762C80.9717 37.7676 80.712 38.0308 80.5069 38.3657C80.3086 38.7007 80.1617 39.0903 80.066 39.5347C79.9703 39.979 79.9224 40.4541 79.9224 40.96ZM92.2169 37.6172V46.5996H89.7457V35.5049H92.1041L92.2169 37.6172ZM95.6109 35.4331L95.5904 37.73C95.44 37.7026 95.2759 37.6821 95.0982 37.6684C94.9273 37.6548 94.7564 37.6479 94.5855 37.6479C94.1617 37.6479 93.7891 37.7095 93.4678 37.8325C93.1465 37.9487 92.8765 38.1196 92.6578 38.3452C92.4459 38.564 92.2818 38.8306 92.1656 39.145C92.0494 39.4595 91.981 39.8115 91.9605 40.2012L91.3965 40.2422C91.3965 39.5449 91.4649 38.8989 91.6016 38.3042C91.7383 37.7095 91.9434 37.1865 92.2169 36.7353C92.4971 36.2842 92.8458 35.9321 93.2628 35.6792C93.6866 35.4263 94.1754 35.2998 94.7291 35.2998C94.8795 35.2998 95.0401 35.3135 95.211 35.3408C95.3887 35.3681 95.522 35.3989 95.6109 35.4331ZM96.421 41.1753V40.9394C96.421 40.1396 96.5372 39.3979 96.7696 38.7143C97.002 38.0239 97.337 37.4258 97.7745 36.9199C98.2188 36.4072 98.7589 36.0107 99.3946 35.7305C100.037 35.4433 100.762 35.2998 101.568 35.2998C102.382 35.2998 103.107 35.4433 103.742 35.7305C104.385 36.0107 104.928 36.4072 105.373 36.9199C105.817 37.4258 106.155 38.0239 106.388 38.7143C106.62 39.3979 106.736 40.1396 106.736 40.9394V41.1753C106.736 41.9751 106.62 42.7168 106.388 43.4004C106.155 44.084 105.817 44.6821 105.373 45.1948C104.928 45.7007 104.388 46.0972 103.753 46.3843C103.117 46.6646 102.396 46.8047 101.589 46.8047C100.775 46.8047 100.047 46.6646 99.4049 46.3843C98.7691 46.0972 98.2291 45.7007 97.7847 45.1948C97.3404 44.6821 97.002 44.084 96.7696 43.4004C96.5372 42.7168 96.421 41.9751 96.421 41.1753ZM98.8922 40.9394V41.1753C98.8922 41.6743 98.9434 42.146 99.046 42.5903C99.1485 43.0347 99.3091 43.4243 99.5279 43.7593C99.7466 44.0942 100.027 44.3574 100.369 44.5488C100.711 44.7402 101.117 44.8359 101.589 44.8359C102.047 44.8359 102.443 44.7402 102.778 44.5488C103.12 44.3574 103.4 44.0942 103.619 43.7593C103.838 43.4243 103.999 43.0347 104.101 42.5903C104.211 42.146 104.265 41.6743 104.265 41.1753V40.9394C104.265 40.4473 104.211 39.9824 104.101 39.5449C103.999 39.1006 103.835 38.7075 103.609 38.3657C103.39 38.0239 103.11 37.7573 102.768 37.5659C102.433 37.3677 102.033 37.2685 101.568 37.2685C101.104 37.2685 100.7 37.3677 100.358 37.5659C100.024 37.7573 99.7466 38.0239 99.5279 38.3657C99.3091 38.7075 99.1485 39.1006 99.046 39.5449C98.9434 39.9824 98.8922 40.4473 98.8922 40.9394ZM111.453 35.5049V46.5996H108.972V35.5049H111.453ZM108.808 32.5928C108.808 32.2168 108.931 31.9057 109.177 31.6596C109.43 31.4067 109.778 31.2803 110.223 31.2803C110.66 31.2803 111.005 31.4067 111.258 31.6596C111.511 31.9057 111.638 32.2168 111.638 32.5928C111.638 32.9619 111.511 33.2695 111.258 33.5156C111.005 33.7617 110.66 33.8847 110.223 33.8847C109.778 33.8847 109.43 33.7617 109.177 33.5156C108.931 33.2695 108.808 32.9619 108.808 32.5928ZM120.928 44.3027V30.8496H123.409V46.5996H121.164L120.928 44.3027ZM113.709 41.1753V40.96C113.709 40.1191 113.808 39.3535 114.006 38.6631C114.205 37.9658 114.492 37.3677 114.868 36.8686C115.244 36.3628 115.702 35.9765 116.242 35.7099C116.782 35.4365 117.39 35.2998 118.067 35.2998C118.737 35.2998 119.325 35.4297 119.831 35.6894C120.337 35.9492 120.767 36.3218 121.123 36.8071C121.478 37.2856 121.762 37.8599 121.974 38.5298C122.186 39.1929 122.336 39.9311 122.425 40.7446V41.4316C122.336 42.2246 122.186 42.9492 121.974 43.6055C121.762 44.2617 121.478 44.8291 121.123 45.3076C120.767 45.7861 120.333 46.1553 119.82 46.415C119.315 46.6748 118.723 46.8047 118.046 46.8047C117.377 46.8047 116.772 46.6646 116.232 46.3843C115.698 46.104 115.244 45.7109 114.868 45.2051C114.492 44.6992 114.205 44.1045 114.006 43.4209C113.808 42.7305 113.709 41.9819 113.709 41.1753ZM116.18 40.96V41.1753C116.18 41.6811 116.225 42.1528 116.314 42.5903C116.409 43.0278 116.556 43.4141 116.754 43.749C116.953 44.0771 117.209 44.3369 117.524 44.5283C117.845 44.7129 118.228 44.8052 118.672 44.8052C119.233 44.8052 119.694 44.6821 120.056 44.436C120.419 44.1899 120.702 43.8584 120.907 43.4414C121.119 43.0176 121.263 42.5459 121.338 42.0264V40.1704C121.297 39.7671 121.212 39.3911 121.082 39.0425C120.959 38.6938 120.791 38.3896 120.579 38.1299C120.367 37.8633 120.104 37.6582 119.79 37.5146C119.482 37.3642 119.116 37.289 118.692 37.289C118.241 37.289 117.858 37.3848 117.544 37.5762C117.23 37.7676 116.97 38.0308 116.765 38.3657C116.566 38.7007 116.42 39.0903 116.324 39.5347C116.228 39.979 116.18 40.4541 116.18 40.96ZM137.283 33.6592L132.822 46.5996H130.126L135.745 31.6699H137.467L137.283 33.6592ZM141.015 46.5996L136.545 33.6592L136.35 31.6699H138.083L143.722 46.5996H141.015ZM140.8 41.0625V43.103H132.679V41.0625H140.8ZM147.444 37.6377V50.8652H144.973V35.5049H147.25L147.444 37.6377ZM154.673 40.9497V41.165C154.673 41.9717 154.578 42.7202 154.386 43.4106C154.202 44.0942 153.925 44.6924 153.556 45.2051C153.194 45.7109 152.746 46.104 152.213 46.3843C151.679 46.6646 151.064 46.8047 150.367 46.8047C149.676 46.8047 149.071 46.6782 148.552 46.4253C148.039 46.1655 147.605 45.7998 147.25 45.3281C146.894 44.8564 146.607 44.3027 146.388 43.667C146.176 43.0244 146.026 42.3203 145.937 41.5547V40.7241C146.026 39.9106 146.176 39.1724 146.388 38.5093C146.607 37.8462 146.894 37.2754 147.25 36.7969C147.605 36.3183 148.039 35.9492 148.552 35.6894C149.065 35.4297 149.663 35.2998 150.346 35.2998C151.044 35.2998 151.662 35.4365 152.202 35.7099C152.742 35.9765 153.197 36.3594 153.566 36.8584C153.935 37.3506 154.212 37.9453 154.397 38.6426C154.581 39.333 154.673 40.102 154.673 40.9497ZM152.202 41.165V40.9497C152.202 40.437 152.154 39.9619 152.059 39.5244C151.963 39.0801 151.813 38.6904 151.608 38.3555C151.402 38.0205 151.139 37.7607 150.818 37.5762C150.504 37.3848 150.124 37.289 149.68 37.289C149.242 37.289 148.866 37.3642 148.552 37.5146C148.237 37.6582 147.974 37.8599 147.762 38.1196C147.55 38.3794 147.386 38.6836 147.27 39.0322C147.154 39.374 147.072 39.7466 147.024 40.1499V42.1392C147.106 42.6313 147.246 43.0825 147.444 43.4927C147.643 43.9028 147.923 44.231 148.285 44.477C148.654 44.7163 149.126 44.8359 149.7 44.8359C150.145 44.8359 150.524 44.7402 150.839 44.5488C151.153 44.3574 151.409 44.0942 151.608 43.7593C151.813 43.4175 151.963 43.0244 152.059 42.5801C152.154 42.1357 152.202 41.6641 152.202 41.165ZM159.257 37.6377V50.8652H156.786V35.5049H159.062L159.257 37.6377ZM166.486 40.9497V41.165C166.486 41.9717 166.39 42.7202 166.199 43.4106C166.014 44.0942 165.737 44.6924 165.368 45.2051C165.006 45.7109 164.558 46.104 164.025 46.3843C163.492 46.6646 162.877 46.8047 162.179 46.8047C161.489 46.8047 160.884 46.6782 160.364 46.4253C159.852 46.1655 159.418 45.7998 159.062 45.3281C158.707 44.8564 158.42 44.3027 158.201 43.667C157.989 43.0244 157.839 42.3203 157.75 41.5547V40.7241C157.839 39.9106 157.989 39.1724 158.201 38.5093C158.42 37.8462 158.707 37.2754 159.062 36.7969C159.418 36.3183 159.852 35.9492 160.364 35.6894C160.877 35.4297 161.475 35.2998 162.159 35.2998C162.856 35.2998 163.475 35.4365 164.015 35.7099C164.555 35.9765 165.009 36.3594 165.379 36.8584C165.748 37.3506 166.025 37.9453 166.209 38.6426C166.394 39.333 166.486 40.102 166.486 40.9497ZM164.015 41.165V40.9497C164.015 40.437 163.967 39.9619 163.871 39.5244C163.776 39.0801 163.625 38.6904 163.42 38.3555C163.215 38.0205 162.952 37.7607 162.631 37.5762C162.316 37.3848 161.937 37.289 161.492 37.289C161.055 37.289 160.679 37.3642 160.364 37.5146C160.05 37.6582 159.787 37.8599 159.575 38.1196C159.363 38.3794 159.199 38.6836 159.083 39.0322C158.966 39.374 158.884 39.7466 158.837 40.1499V42.1392C158.919 42.6313 159.059 43.0825 159.257 43.4927C159.455 43.9028 159.736 44.231 160.098 44.477C160.467 44.7163 160.939 44.8359 161.513 44.8359C161.957 44.8359 162.337 44.7402 162.651 44.5488C162.965 44.3574 163.222 44.0942 163.42 43.7593C163.625 43.4175 163.776 43.0244 163.871 42.5801C163.967 42.1357 164.015 41.6641 164.015 41.165Z" fill="white"/>
<path d="M54.4033 24.1992H52.2773L52.291 22.8389H54.4033C55.0186 22.8389 55.5335 22.7044 55.9482 22.4355C56.3675 22.1667 56.682 21.7816 56.8916 21.2803C57.1058 20.779 57.2129 20.182 57.2129 19.4893V18.9492C57.2129 18.4115 57.1514 17.9352 57.0283 17.5205C56.9098 17.1058 56.7321 16.7572 56.4951 16.4746C56.2627 16.192 55.9756 15.9779 55.6338 15.832C55.2966 15.6862 54.9069 15.6133 54.4648 15.6133H52.2363V14.2461H54.4648C55.1257 14.2461 55.7295 14.3577 56.2764 14.581C56.8233 14.7998 57.2949 15.1165 57.6914 15.5312C58.0925 15.946 58.4001 16.4427 58.6143 17.0215C58.8285 17.6003 58.9356 18.2474 58.9356 18.9629V19.4893C58.9356 20.2047 58.8285 20.8519 58.6143 21.4307C58.4001 22.0094 58.0925 22.5062 57.6914 22.9209C57.2904 23.3311 56.8119 23.6478 56.2559 23.8711C55.7044 24.0898 55.0869 24.1992 54.4033 24.1992ZM53.2275 14.2461V24.1992H51.5117V14.2461H53.2275ZM60.1797 20.583V20.4258C60.1797 19.8926 60.2572 19.3981 60.4121 18.9424C60.5671 18.4821 60.7904 18.0833 61.082 17.7461C61.3783 17.4043 61.7383 17.14 62.1621 16.9531C62.5905 16.7617 63.0736 16.666 63.6113 16.666C64.1537 16.666 64.6367 16.7617 65.0606 16.9531C65.489 17.14 65.8513 17.4043 66.1475 17.7461C66.4437 18.0833 66.6693 18.4821 66.8242 18.9424C66.9792 19.3981 67.0567 19.8926 67.0567 20.4258V20.583C67.0567 21.1162 66.9792 21.6107 66.8242 22.0664C66.6693 22.5221 66.4437 22.9209 66.1475 23.2627C65.8513 23.5999 65.4912 23.8643 65.0674 24.0557C64.6436 24.2425 64.1628 24.3359 63.625 24.3359C63.0827 24.3359 62.5973 24.2425 62.169 24.0557C61.7451 23.8643 61.3851 23.5999 61.0889 23.2627C60.7927 22.9209 60.5671 22.5221 60.4121 22.0664C60.2572 21.6107 60.1797 21.1162 60.1797 20.583ZM61.8272 20.4258V20.583C61.8272 20.9157 61.8613 21.2301 61.9297 21.5264C61.9981 21.8226 62.1052 22.0824 62.251 22.3057C62.3968 22.529 62.5837 22.7044 62.8115 22.832C63.0394 22.9596 63.3106 23.0234 63.625 23.0234C63.9304 23.0234 64.1947 22.9596 64.418 22.832C64.6459 22.7044 64.8327 22.529 64.9785 22.3057C65.1244 22.0824 65.2315 21.8226 65.2998 21.5264C65.3727 21.2301 65.4092 20.9157 65.4092 20.583V20.4258C65.4092 20.0977 65.3727 19.7878 65.2998 19.4961C65.2315 19.1999 65.1221 18.9378 64.9717 18.71C64.8259 18.4821 64.639 18.3044 64.4112 18.1767C64.1878 18.0446 63.9212 17.9785 63.6113 17.9785C63.3014 17.9785 63.0326 18.0446 62.8047 18.1767C62.5814 18.3044 62.3968 18.4821 62.251 18.71C62.1052 18.9378 61.9981 19.1999 61.9297 19.4961C61.8613 19.7878 61.8272 20.0977 61.8272 20.4258ZM70.4473 22.5586L72.1563 16.8027H73.209L72.9219 18.5254L71.1992 24.1992H70.2559L70.4473 22.5586ZM69.4424 16.8027L70.7754 22.5859L70.8848 24.1992H69.8321L67.8291 16.8027H69.4424ZM74.8086 22.5176L76.1006 16.8027H77.7071L75.711 24.1992H74.6582L74.8086 22.5176ZM73.3867 16.8027L75.0752 22.4902L75.2871 24.1992H74.3438L72.6006 18.5185L72.3135 16.8027H73.3867ZM80.462 18.3818V24.1992H78.8145V16.8027H80.3663L80.462 18.3818ZM80.168 20.2275L79.6348 20.2207C79.6394 19.6966 79.7123 19.2158 79.8536 18.7783C79.9994 18.3408 80.1999 17.9648 80.4551 17.6504C80.7149 17.3359 81.0248 17.0944 81.3848 16.9258C81.7448 16.7526 82.1459 16.666 82.5879 16.666C82.9434 16.666 83.2647 16.7161 83.5518 16.8164C83.8435 16.9121 84.0918 17.0693 84.2969 17.2881C84.5066 17.5068 84.6661 17.7917 84.7754 18.1426C84.8848 18.4889 84.9395 18.915 84.9395 19.4209V24.1992H83.2852V19.4141C83.2852 19.0586 83.2328 18.7783 83.128 18.5732C83.0277 18.3636 82.8796 18.2155 82.6836 18.1289C82.4922 18.0378 82.253 17.9922 81.9659 17.9922C81.6833 17.9922 81.4304 18.0514 81.2071 18.1699C80.9838 18.2884 80.7946 18.4502 80.6397 18.6553C80.4893 18.8603 80.3731 19.0973 80.2911 19.3662C80.209 19.6351 80.168 19.9222 80.168 20.2275ZM88.3848 13.6992V24.1992H86.7305V13.6992H88.3848ZM89.8751 20.583V20.4258C89.8751 19.8926 89.9525 19.3981 90.1075 18.9424C90.2624 18.4821 90.4857 18.0833 90.7774 17.7461C91.0736 17.4043 91.4337 17.14 91.8575 16.9531C92.2859 16.7617 92.7689 16.666 93.3067 16.666C93.849 16.666 94.3321 16.7617 94.7559 16.9531C95.1843 17.14 95.5466 17.4043 95.8428 17.7461C96.1391 18.0833 96.3646 18.4821 96.5196 18.9424C96.6745 19.3981 96.752 19.8926 96.752 20.4258V20.583C96.752 21.1162 96.6745 21.6107 96.5196 22.0664C96.3646 22.5221 96.1391 22.9209 95.8428 23.2627C95.5466 23.5999 95.1866 23.8643 94.7628 24.0557C94.3389 24.2425 93.8581 24.3359 93.3204 24.3359C92.7781 24.3359 92.2927 24.2425 91.8643 24.0557C91.4405 23.8643 91.0805 23.5999 90.7842 23.2627C90.488 22.9209 90.2624 22.5221 90.1075 22.0664C89.9525 21.6107 89.8751 21.1162 89.8751 20.583ZM91.5225 20.4258V20.583C91.5225 20.9157 91.5567 21.2301 91.6251 21.5264C91.6934 21.8226 91.8005 22.0824 91.9463 22.3057C92.0922 22.529 92.279 22.7044 92.5069 22.832C92.7348 22.9596 93.0059 23.0234 93.3204 23.0234C93.6257 23.0234 93.89 22.9596 94.1133 22.832C94.3412 22.7044 94.5281 22.529 94.6739 22.3057C94.8197 22.0824 94.9268 21.8226 94.9952 21.5264C95.0681 21.2301 95.1046 20.9157 95.1046 20.583V20.4258C95.1046 20.0977 95.0681 19.7878 94.9952 19.4961C94.9268 19.1999 94.8174 18.9378 94.6671 18.71C94.5212 18.4821 94.3344 18.3044 94.1065 18.1767C93.8832 18.0446 93.6166 17.9785 93.3067 17.9785C92.9968 17.9785 92.7279 18.0446 92.5001 18.1767C92.2768 18.3044 92.0922 18.4821 91.9463 18.71C91.8005 18.9378 91.6934 19.1999 91.6251 19.4961C91.5567 19.7878 91.5225 20.0977 91.5225 20.4258ZM102.303 22.7158V19.1885C102.303 18.9241 102.255 18.6963 102.159 18.5049C102.064 18.3135 101.918 18.1654 101.722 18.0605C101.53 17.9557 101.289 17.9033 100.997 17.9033C100.728 17.9033 100.496 17.9489 100.3 18.04C100.104 18.1312 99.9512 18.2542 99.8419 18.4092C99.7325 18.5641 99.6778 18.7396 99.6778 18.9355H98.0372C98.0372 18.6439 98.1078 18.3613 98.2491 18.0879C98.3904 17.8144 98.5954 17.5706 98.8643 17.3564C99.1332 17.1422 99.4545 16.9736 99.8282 16.8506C100.202 16.7275 100.621 16.666 101.086 16.666C101.642 16.666 102.134 16.7594 102.563 16.9463C102.996 17.1331 103.335 17.4157 103.581 17.7939C103.832 18.1676 103.957 18.637 103.957 19.2021V22.4902C103.957 22.8275 103.98 23.1305 104.025 23.3994C104.076 23.6637 104.146 23.8939 104.237 24.0898V24.1992H102.549C102.471 24.0215 102.41 23.7959 102.364 23.5225C102.323 23.2445 102.303 22.9756 102.303 22.7158ZM102.542 19.7012L102.556 20.7197H101.373C101.068 20.7197 100.799 20.7493 100.566 20.8086C100.334 20.8633 100.14 20.9453 99.9854 21.0547C99.8305 21.1641 99.7143 21.2962 99.6368 21.4512C99.5593 21.6061 99.5206 21.7816 99.5206 21.9775C99.5206 22.1735 99.5661 22.3535 99.6573 22.5176C99.7484 22.6771 99.8806 22.8024 100.054 22.8936C100.232 22.9847 100.446 23.0303 100.696 23.0303C101.034 23.0303 101.328 22.9619 101.578 22.8252C101.833 22.6839 102.034 22.513 102.18 22.3125C102.326 22.1074 102.403 21.9137 102.412 21.7314L102.945 22.4629C102.891 22.6497 102.797 22.8503 102.665 23.0645C102.533 23.2786 102.36 23.4837 102.146 23.6797C101.936 23.8711 101.683 24.0283 101.387 24.1514C101.095 24.2744 100.758 24.3359 100.375 24.3359C99.892 24.3359 99.4613 24.2402 99.0831 24.0488C98.7048 23.8529 98.4086 23.5908 98.1944 23.2627C97.9802 22.93 97.8731 22.554 97.8731 22.1348C97.8731 21.7428 97.946 21.3965 98.0919 21.0957C98.2423 20.7904 98.461 20.5352 98.7481 20.3301C99.0398 20.125 99.3953 19.97 99.8145 19.8652C100.234 19.7559 100.712 19.7012 101.25 19.7012H102.542ZM110.191 22.668V13.6992H111.846V24.1992H110.349L110.191 22.668ZM105.379 20.583V20.4394C105.379 19.8789 105.445 19.3685 105.577 18.9082C105.709 18.4434 105.901 18.0446 106.151 17.7119C106.402 17.3747 106.707 17.1172 107.067 16.9394C107.427 16.7572 107.833 16.666 108.284 16.666C108.731 16.666 109.123 16.7526 109.46 16.9258C109.797 17.0989 110.084 17.3473 110.321 17.6709C110.558 17.9899 110.747 18.3727 110.889 18.8193C111.03 19.2614 111.13 19.7536 111.19 20.2959V20.7539C111.13 21.2825 111.03 21.7656 110.889 22.2031C110.747 22.6406 110.558 23.0189 110.321 23.3379C110.084 23.6569 109.795 23.903 109.453 24.0762C109.116 24.2493 108.722 24.3359 108.271 24.3359C107.824 24.3359 107.421 24.2425 107.061 24.0557C106.705 23.8688 106.402 23.6068 106.151 23.2695C105.901 22.9323 105.709 22.5358 105.577 22.0801C105.445 21.6198 105.379 21.1208 105.379 20.583ZM107.026 20.4394V20.583C107.026 20.9202 107.056 21.2347 107.115 21.5264C107.179 21.818 107.277 22.0755 107.409 22.2988C107.541 22.5176 107.712 22.6908 107.922 22.8184C108.136 22.9414 108.391 23.0029 108.688 23.0029C109.061 23.0029 109.369 22.9209 109.61 22.7568C109.852 22.5928 110.041 22.3717 110.178 22.0937C110.319 21.8112 110.415 21.4967 110.465 21.1504V19.9131C110.438 19.6442 110.381 19.3935 110.294 19.1611C110.212 18.9287 110.1 18.7259 109.959 18.5527C109.818 18.375 109.642 18.2383 109.433 18.1426C109.228 18.0423 108.984 17.9922 108.701 17.9922C108.4 17.9922 108.145 18.056 107.936 18.1836C107.726 18.3112 107.553 18.4866 107.416 18.71C107.284 18.9333 107.186 19.193 107.122 19.4893C107.058 19.7855 107.026 20.1022 107.026 20.4394ZM120.445 16.8027V18.0059H116.275V16.8027H120.445ZM117.479 14.9912H119.126V22.1553C119.126 22.3831 119.158 22.5586 119.222 22.6816C119.29 22.8001 119.384 22.8799 119.502 22.9209C119.621 22.9619 119.76 22.9824 119.919 22.9824C120.033 22.9824 120.142 22.9756 120.247 22.9619C120.352 22.9482 120.436 22.9346 120.5 22.9209L120.507 24.1787C120.37 24.2197 120.211 24.2562 120.028 24.2881C119.851 24.32 119.646 24.3359 119.413 24.3359C119.035 24.3359 118.7 24.2699 118.408 24.1377C118.117 24.001 117.889 23.7799 117.725 23.4746C117.561 23.1693 117.479 22.7637 117.479 22.2578V14.9912ZM123.344 13.6992V24.1992H121.703V13.6992H123.344ZM123.057 20.2275L122.524 20.2207C122.528 19.7103 122.599 19.2386 122.735 18.8057C122.877 18.3727 123.073 17.9967 123.323 17.6777C123.579 17.3542 123.884 17.1058 124.239 16.9326C124.595 16.7549 124.989 16.666 125.422 16.666C125.787 16.666 126.115 16.7161 126.406 16.8164C126.703 16.9167 126.958 17.0784 127.172 17.3017C127.386 17.5205 127.548 17.8076 127.657 18.1631C127.771 18.514 127.828 18.9424 127.828 19.4482V24.1992H126.174V19.4346C126.174 19.0791 126.122 18.7965 126.017 18.5869C125.916 18.3773 125.768 18.2269 125.572 18.1357C125.376 18.04 125.137 17.9922 124.855 17.9922C124.558 17.9922 124.296 18.0514 124.068 18.1699C123.845 18.2884 123.658 18.4502 123.508 18.6553C123.358 18.8603 123.244 19.0973 123.166 19.3662C123.093 19.6351 123.057 19.9222 123.057 20.2275ZM132.757 24.3359C132.21 24.3359 131.716 24.2471 131.274 24.0693C130.836 23.887 130.462 23.6341 130.152 23.3105C129.847 22.987 129.612 22.6064 129.448 22.1689C129.284 21.7314 129.202 21.2598 129.202 20.7539V20.4805C129.202 19.9017 129.287 19.3776 129.455 18.9082C129.624 18.4388 129.859 18.0378 130.159 17.7051C130.46 17.3678 130.816 17.1103 131.226 16.9326C131.636 16.7549 132.08 16.666 132.559 16.666C133.087 16.666 133.55 16.7549 133.946 16.9326C134.343 17.1103 134.671 17.361 134.931 17.6846C135.195 18.0036 135.391 18.3841 135.519 18.8262C135.651 19.2682 135.717 19.7559 135.717 20.2891V20.9932H130.002V19.8105H134.09V19.6807C134.081 19.3844 134.022 19.1064 133.912 18.8467C133.807 18.5869 133.646 18.3773 133.427 18.2178C133.208 18.0583 132.916 17.9785 132.552 17.9785C132.278 17.9785 132.035 18.0378 131.82 18.1562C131.611 18.2702 131.435 18.4365 131.294 18.6553C131.153 18.874 131.043 19.1383 130.966 19.4482C130.893 19.7536 130.857 20.0977 130.857 20.4805V20.7539C130.857 21.0775 130.9 21.3783 130.986 21.6562C131.078 21.9297 131.21 22.1689 131.383 22.374C131.556 22.5791 131.766 22.7409 132.012 22.8594C132.258 22.9733 132.538 23.0303 132.853 23.0303C133.249 23.0303 133.602 22.9505 133.912 22.791C134.222 22.6315 134.491 22.4059 134.719 22.1143L135.587 22.9551C135.428 23.1875 135.22 23.4108 134.965 23.625C134.71 23.8346 134.398 24.0055 134.028 24.1377C133.664 24.2699 133.24 24.3359 132.757 24.3359Z" fill="white"/>
<path d="M31.2643 17.4078L32.552 15.0845C32.5686 15.0547 32.579 15.022 32.5829 14.9881C32.5868 14.9543 32.5839 14.92 32.5745 14.8872C32.5651 14.8544 32.5494 14.8239 32.5282 14.7972C32.507 14.7705 32.4807 14.7483 32.4509 14.7318C32.3907 14.6984 32.3197 14.6903 32.2536 14.7093C32.1874 14.7282 32.1315 14.7727 32.0981 14.8329L30.7961 17.1819C29.6852 16.6949 28.4853 16.4434 27.2724 16.4434C26.0594 16.4434 24.8596 16.6949 23.7486 17.1819L22.4466 14.8329C22.4132 14.7727 22.3573 14.7282 22.2911 14.7093C22.225 14.6903 22.154 14.6984 22.0938 14.7318C22.0336 14.7651 21.9891 14.821 21.9702 14.8872C21.9512 14.9534 21.9593 15.0244 21.9927 15.0845L23.2805 17.4078C22.0546 18.012 21.0189 18.9422 20.2868 20.0963C19.5548 21.2504 19.1547 22.5838 19.1305 23.9502H35.4143C35.3901 22.5838 34.99 21.2504 34.2579 20.0963C33.5259 18.9422 32.4901 18.012 31.2643 17.4078ZM19.1303 36.3959C19.1303 36.9179 19.3377 37.4186 19.7069 37.7878C20.076 38.1569 20.5767 38.3643 21.0987 38.3643H22.405V42.3906C22.4043 42.6307 22.4511 42.8686 22.5425 43.0906C22.6339 43.3126 22.7683 43.5144 22.9379 43.6845C23.1074 43.8545 23.3088 43.9894 23.5306 44.0814C23.7524 44.1734 23.9902 44.2208 24.2303 44.2208C24.4704 44.2208 24.7081 44.1734 24.9299 44.0814C25.1517 43.9894 25.3531 43.8545 25.5227 43.6845C25.6922 43.5144 25.8266 43.3126 25.918 43.0906C26.0095 42.8686 26.0562 42.6307 26.0555 42.3906V38.3643H28.4891V42.3906C28.4885 42.6307 28.5352 42.8686 28.6267 43.0906C28.7181 43.3126 28.8524 43.5144 29.022 43.6845C29.1916 43.8545 29.393 43.9894 29.6148 44.0814C29.8365 44.1734 30.0743 44.2208 30.3144 44.2208C30.5545 44.2208 30.7923 44.1734 31.0141 44.0814C31.2358 43.9894 31.4373 43.8545 31.6068 43.6845C31.7764 43.5144 31.9107 43.3126 32.0022 43.0906C32.0936 42.8686 32.1403 42.6307 32.1397 42.3906V38.3643H33.446C33.9681 38.3643 34.4687 38.1569 34.8379 37.7878C35.207 37.4186 35.4144 36.9179 35.4144 36.3959V24.5944H19.1303V36.3959ZM16.6251 24.2812C16.1412 24.2818 15.6772 24.4742 15.335 24.8164C14.9928 25.1586 14.8004 25.6226 14.7998 26.1065V33.7117C14.7992 33.9518 14.8459 34.1897 14.9373 34.4117C15.0288 34.6338 15.1631 34.8356 15.3327 35.0056C15.5022 35.1756 15.7037 35.3105 15.9254 35.4025C16.1472 35.4946 16.385 35.5419 16.6251 35.5419C16.8652 35.5419 17.103 35.4946 17.3247 35.4025C17.5465 35.3105 17.7479 35.1756 17.9175 35.0056C18.0871 34.8356 18.2214 34.6338 18.3128 34.4117C18.4043 34.1897 18.451 33.9518 18.4504 33.7117V26.1065C18.4498 25.6226 18.2573 25.1586 17.9151 24.8164C17.573 24.4742 17.109 24.2818 16.6251 24.2812ZM37.9196 24.2812C37.4357 24.2818 36.9717 24.4742 36.6295 24.8164C36.2874 25.1586 36.0949 25.6226 36.0943 26.1065V33.7117C36.0937 33.9518 36.1404 34.1897 36.2318 34.4117C36.3233 34.6338 36.4576 34.8356 36.6272 35.0056C36.7967 35.1756 36.9982 35.3105 37.22 35.4025C37.4417 35.4946 37.6795 35.5419 37.9196 35.5419C38.1597 35.5419 38.3975 35.4946 38.6193 35.4025C38.841 35.3105 39.0425 35.1756 39.212 35.0056C39.3816 34.8356 39.5159 34.6338 39.6074 34.4117C39.6988 34.1897 39.7455 33.9518 39.7449 33.7117V26.1065C39.7443 25.6226 39.5519 25.1586 39.2097 24.8164C38.8675 24.4742 38.4035 24.2818 37.9196 24.2812Z" fill="white"/>
</g>
<defs>
<clipPath id="clip0_7331_91878">
<rect width="177.1" height="59.1814" fill="white" transform="translate(0.0996094)"/>
</clipPath>
</defs>
</svg>
