<svg width="178" height="60" viewBox="0 0 178 60" fill="none" xmlns="http://www.w3.org/2000/svg">
<g clip-path="url(#clip0_7331_91843)">
<path d="M162.896 0H14.0556C13.6117 0 13.0199 0 12.4281 0C11.9842 0 11.5404 0 11.0965 0C10.0608 0 9.1731 0.147954 8.13743 0.295907C7.24971 0.443861 6.21404 0.739768 5.32632 1.18363C4.4386 1.62749 3.69883 2.2193 2.95906 2.95907C2.2193 3.69884 1.62749 4.43861 1.18363 5.32633C0.739766 6.21405 0.44386 7.24973 0.295906 8.13745C0.147953 9.17312 0 10.2088 0 11.0965C0 11.5404 0 11.9842 0 12.4281V46.6054C0 47.0493 0 47.4931 0 47.937C0 48.9726 0.147953 49.8604 0.295906 50.896C0.44386 51.9317 0.739766 52.8194 1.18363 53.7072C1.62749 54.7428 2.2193 55.4826 2.95906 56.2224C3.69883 56.9621 4.4386 57.554 5.32632 57.9978C6.21404 58.4417 7.10175 58.7376 8.13743 58.8855C9.1731 59.0335 10.0608 59.1814 11.0965 59.1814C11.5404 59.1814 11.9842 59.1814 12.4281 59.1814C13.0199 59.1814 13.4637 59.1814 14.0556 59.1814H162.896C163.488 59.1814 163.932 59.1814 164.524 59.1814C164.968 59.1814 165.412 59.1814 165.856 59.1814C166.891 59.1814 167.779 59.0335 168.815 58.8855C169.85 58.7376 170.738 58.4417 171.626 57.9978C172.513 57.554 173.253 56.9621 173.993 56.2224C174.733 55.4826 175.325 54.7428 175.768 53.8551C176.212 52.9674 176.508 52.0797 176.656 51.044C176.804 50.0083 176.952 49.1206 176.952 48.0849C176.952 47.6411 176.952 47.1972 176.952 46.7533C176.952 46.1615 176.952 45.7177 176.952 45.1259V14.0556C176.952 13.4638 176.952 13.0199 176.952 12.4281C176.952 11.9842 176.952 11.5404 176.952 11.0965C176.952 10.0608 176.804 9.17312 176.656 8.13745C176.508 7.10177 176.212 6.21405 175.768 5.32633C174.881 3.55089 173.401 2.07135 171.626 1.18363C170.738 0.739768 169.85 0.443861 168.815 0.295907C167.779 0.147954 166.891 0 165.856 0C165.412 0 164.968 0 164.524 0C164.08 0 163.488 0 162.896 0Z" fill="white"/>
<path d="M12.428 57.8503C11.9842 57.8503 11.5403 57.8503 11.0965 57.8503C10.2087 57.8503 9.17307 57.7024 8.28535 57.5544C7.39763 57.4064 6.65786 57.1105 5.77014 56.8146C5.03038 56.3708 4.29061 55.9269 3.6988 55.3351C3.10699 54.7433 2.51517 54.0035 2.21927 53.2637C1.77541 52.524 1.62745 51.6363 1.4795 50.7485C1.33155 49.8608 1.18359 48.9731 1.18359 47.9374C1.18359 47.6415 1.18359 46.6058 1.18359 46.6058V12.4286C1.18359 12.4286 1.18359 11.3929 1.18359 11.097C1.18359 10.2092 1.33155 9.17357 1.4795 8.28585C1.62745 7.54608 1.92336 6.65836 2.36722 5.91859C2.81108 5.17882 3.25494 4.43906 3.84675 3.84724C4.43856 3.25543 5.17833 2.81157 5.9181 2.36771C6.65786 1.92385 7.54558 1.77589 8.4333 1.62794C9.32102 1.47998 10.2087 1.33203 11.2444 1.33203H12.576H164.672H166.003C166.891 1.33203 167.779 1.47998 168.815 1.62794C169.702 1.77589 170.442 2.0718 171.33 2.36771C172.809 3.10747 174.141 4.43906 174.881 5.91859C175.325 6.65836 175.472 7.54608 175.62 8.28585C175.768 9.17357 175.916 10.2092 175.916 11.097C175.916 11.5408 175.916 11.9847 175.916 12.4286C175.916 13.0204 175.916 13.4642 175.916 14.056V44.9783C175.916 45.5702 175.916 46.014 175.916 46.6058C175.916 47.0497 175.916 47.4936 175.916 47.9374C175.916 48.8251 175.768 49.7129 175.62 50.7485C175.472 51.6363 175.177 52.376 174.881 53.2637C174.437 54.0035 173.993 54.7433 173.401 55.3351C172.809 55.9269 172.07 56.5187 171.33 56.8146C170.59 57.2585 169.702 57.5544 168.815 57.5544C167.927 57.7024 167.039 57.8503 166.003 57.8503C165.56 57.8503 165.116 57.8503 164.672 57.8503H163.044H12.428Z" fill="black"/>
<path d="M36.6927 30.0316C36.6927 27.5164 38.0242 25.1491 40.2435 23.8175C38.912 21.8941 36.6927 20.7105 34.3254 20.5626C31.8102 20.2667 29.4429 22.0421 28.1114 22.0421C26.7798 22.0421 24.8564 20.5626 22.7851 20.5626C19.9739 20.7105 17.4587 22.1901 16.1272 24.5573C13.316 29.4398 15.3874 36.8375 18.1985 40.8322C19.5301 42.7556 21.1576 44.9749 23.2289 44.9749C25.3003 44.827 26.04 43.6433 28.5552 43.6433C31.0704 43.6433 31.6622 44.9749 33.8815 44.9749C36.1008 44.9749 37.4324 43.0515 38.764 40.9802C39.7997 39.6486 40.5394 38.0211 40.9833 36.3936C38.3201 35.5059 36.6927 32.8427 36.6927 30.0316Z" fill="white"/>
<path d="M32.5498 18.0475C33.7334 16.568 34.3253 14.7925 34.1773 12.8691C32.4019 13.0171 30.6264 13.9048 29.4428 15.3844C28.2592 16.7159 27.6674 18.4914 27.8153 20.4148C29.7387 20.4148 31.3662 19.5271 32.5498 18.0475Z" fill="white"/>
<path d="M62.5853 40.0932H55.6315L54.004 45.1236H51.0449L57.7028 26.7773H60.6619L67.3198 45.1236H64.3607L62.5853 40.0932ZM56.3712 37.8739H61.9935L59.1823 29.7364H59.0344L56.3712 37.8739Z" fill="white"/>
<path d="M81.6717 38.4677C81.6717 42.6104 79.4524 45.2736 76.0495 45.2736C74.2741 45.4215 72.6466 44.3858 71.9068 42.9063V49.5642H69.0957V31.8098H71.7589V34.0291C72.6466 32.5495 74.2741 31.6618 76.0495 31.6618C79.3045 31.5139 81.6717 34.325 81.6717 38.4677ZM78.7127 38.4677C78.7127 35.8045 77.3811 34.0291 75.1618 34.0291C73.0904 34.0291 71.6109 35.8045 71.6109 38.4677C71.6109 41.1309 73.0904 42.9063 75.1618 42.9063C77.3811 42.9063 78.7127 41.1309 78.7127 38.4677Z" fill="white"/>
<path d="M96.3182 38.4677C96.3182 42.6104 94.0989 45.2736 90.696 45.2736C88.9206 45.4215 87.2931 44.3858 86.5533 42.9063V49.5642H83.7422V31.8098H86.4053V34.0291C87.2931 32.5495 88.9206 31.6618 90.696 31.6618C94.0989 31.5139 96.3182 34.325 96.3182 38.4677ZM93.5071 38.4677C93.5071 35.8045 92.1755 34.0291 89.9562 34.0291C87.8849 34.0291 86.4053 35.8045 86.4053 38.4677C86.4053 41.1309 87.8849 42.9063 89.9562 42.9063C92.1755 42.9063 93.5071 41.1309 93.5071 38.4677Z" fill="white"/>
<path d="M106.084 39.9462C106.232 41.7216 108.007 42.9053 110.522 42.9053C112.889 42.9053 114.517 41.7216 114.517 40.0942C114.517 38.6146 113.481 37.8749 111.114 37.283L108.747 36.6912C105.344 35.8035 103.864 34.324 103.864 31.8088C103.864 28.7017 106.675 26.4824 110.522 26.4824C114.369 26.4824 117.032 28.7017 117.18 31.8088H114.369C114.221 30.0333 112.741 28.8497 110.522 28.8497C108.303 28.8497 106.823 30.0333 106.823 31.6608C106.823 32.9924 107.859 33.7322 110.226 34.324L112.298 34.7678C115.996 35.6555 117.624 37.1351 117.624 39.7982C117.624 43.2012 114.813 45.4205 110.522 45.4205C106.379 45.4205 103.716 43.3491 103.568 39.9462H106.084Z" fill="white"/>
<path d="M123.247 28.5547V31.6617H125.762V33.881H123.247V41.2787C123.247 42.4623 123.691 42.9062 124.874 42.9062C125.17 42.9062 125.466 42.9062 125.762 42.9062V45.1255C125.318 45.2734 124.726 45.2734 124.282 45.2734C121.619 45.2734 120.584 44.2378 120.584 41.7226V34.029H118.66V31.8097H120.584V28.7026H123.247V28.5547Z" fill="white"/>
<path d="M127.389 38.468C127.389 34.3253 129.904 31.6621 133.751 31.6621C137.597 31.6621 140.113 34.3253 140.113 38.468C140.113 42.7586 137.597 45.2738 133.751 45.2738C129.756 45.2738 127.389 42.6107 127.389 38.468ZM137.302 38.468C137.302 35.5089 135.97 33.8814 133.751 33.8814C131.531 33.8814 130.2 35.5089 130.2 38.468C130.2 41.427 131.531 43.0545 133.751 43.0545C135.97 43.0545 137.302 41.2791 137.302 38.468Z" fill="white"/>
<path d="M142.332 31.6605H144.995V34.0278C145.291 32.5483 146.771 31.5126 148.25 31.6605C148.546 31.6605 148.842 31.6605 149.138 31.8085V34.3237C148.694 34.1758 148.25 34.1758 147.954 34.1758C146.475 34.1758 145.143 35.3594 145.143 36.8389C145.143 36.9869 145.143 37.1348 145.143 37.2828V45.2723H142.332V31.6605Z" fill="white"/>
<path d="M161.862 41.1287C161.566 43.496 159.051 45.2714 156.091 45.2714C152.245 45.2714 149.729 42.6082 149.729 38.4655C149.729 34.3228 152.097 31.5117 155.944 31.5117C159.642 31.5117 162.01 34.0269 162.01 38.1696V39.0574H152.541V39.2053C152.393 41.1287 153.724 42.7562 155.648 43.0521C155.796 43.0521 155.944 43.0521 156.091 43.0521C157.423 43.2001 158.755 42.4603 159.199 41.1287H161.862ZM152.541 37.134H159.199C159.346 35.3585 157.867 33.879 156.091 33.731C155.944 33.731 155.944 33.731 155.796 33.731C154.02 33.731 152.541 35.2106 152.541 37.134Z" fill="white"/>
<path d="M55.9268 12.8706C58.1461 12.7227 59.9216 14.3501 60.0695 16.4215C60.0695 16.7174 60.0695 16.8654 60.0695 17.1613C60.0695 19.9724 58.59 21.5999 55.9268 21.5999H52.6719V12.7227H55.9268V12.8706ZM54.1514 20.5642H55.7789C57.2584 20.7122 58.59 19.5285 58.738 17.901C58.738 17.7531 58.738 17.4572 58.738 17.3092C58.8859 15.8297 57.8502 14.3501 56.3707 14.2022C56.2228 14.2022 56.0748 14.2022 55.7789 14.2022H54.1514V20.5642Z" fill="white"/>
<path d="M61.697 18.3451C61.5491 16.5696 62.7327 15.0901 64.5081 14.9421C66.2836 14.7942 67.7631 15.9778 67.9111 17.7533C67.9111 17.9012 67.9111 18.1971 67.9111 18.3451C68.059 20.1205 66.8754 21.6001 65.1 21.748C63.3245 21.896 61.845 20.7123 61.697 18.9369C61.697 18.7889 61.697 18.641 61.697 18.3451ZM66.5795 18.3451C66.5795 16.8655 65.9877 16.1258 64.804 16.1258C63.6204 16.1258 63.0286 17.0135 63.0286 18.3451C63.0286 19.8246 63.6204 20.7123 64.804 20.7123C65.9877 20.7123 66.5795 19.8246 66.5795 18.3451Z" fill="white"/>
<path d="M76.3444 21.7497H75.0129L73.6813 16.8672H73.5333L72.2017 21.7497H70.8702L69.0947 15.0918H70.4263L71.6099 20.1222H71.7579L73.0895 15.0918H74.421L75.7526 20.1222H75.9006L77.0842 15.0918H78.4158L76.3444 21.7497Z" fill="white"/>
<path d="M79.748 15.0918H81.0796V16.1274H81.2276C81.5235 15.3877 82.4112 14.9438 83.151 14.9438C84.3346 14.7959 85.3703 15.6836 85.5182 17.0152C85.5182 17.1631 85.5182 17.3111 85.5182 17.459V21.7497H84.1866V17.7549C84.1866 16.7193 83.7428 16.1274 82.7071 16.1274C81.8194 16.1274 81.0796 16.7193 81.0796 17.607C81.0796 17.7549 81.0796 17.7549 81.0796 17.9029V21.7497H79.748V15.0918Z" fill="white"/>
<path d="M87.4404 12.4277H88.772V21.7488H87.4404V12.4277Z" fill="white"/>
<path d="M90.5476 18.347C90.3997 16.5716 91.5833 15.0921 93.3587 14.9441C95.1342 14.7961 96.6137 15.9798 96.7617 17.7552C96.7617 17.9032 96.7617 18.1991 96.7617 18.347C96.9096 20.1225 95.726 21.602 93.9505 21.75C92.1751 21.8979 90.6956 20.7143 90.5476 18.9388C90.5476 18.7909 90.5476 18.6429 90.5476 18.347ZM95.578 18.347C95.578 16.8675 94.9862 16.1277 93.8026 16.1277C92.619 16.1277 92.0271 17.0154 92.0271 18.347C92.0271 19.8266 92.619 20.7143 93.8026 20.7143C94.8383 20.7143 95.578 19.8266 95.578 18.347Z" fill="white"/>
<path d="M98.2407 19.8258C98.2407 18.6422 99.1284 17.9024 100.756 17.9024L102.531 17.7545V17.1627C102.531 16.4229 102.088 16.127 101.2 16.127C100.46 16.127 100.016 16.4229 99.8682 16.8668H98.5366C98.6846 15.6831 99.7203 14.9434 101.2 14.9434C102.827 14.9434 103.863 15.8311 103.863 17.1627V21.7492H102.531V20.8615H102.383C101.94 21.6013 101.2 21.8972 100.312 21.8972C99.2764 22.0451 98.2407 21.1574 98.0928 20.1217C98.2407 19.9738 98.2407 19.9738 98.2407 19.8258ZM102.531 19.234V18.6422L100.904 18.7902C100.016 18.7902 99.5723 19.234 99.5723 19.6779C99.5723 20.2697 100.164 20.5656 100.756 20.5656C101.644 20.8615 102.383 20.2697 102.531 19.234C102.531 19.382 102.531 19.382 102.531 19.234Z" fill="white"/>
<path d="M105.491 18.3459C105.491 16.2745 106.527 14.9429 108.302 14.9429C109.19 14.9429 109.93 15.3868 110.374 16.1266H110.522V12.4277H111.853V21.7488H110.522V20.7131H110.374C109.93 21.4529 109.19 21.8968 108.302 21.8968C106.675 21.8968 105.491 20.5652 105.491 18.3459ZM106.971 18.3459C106.971 19.8254 107.711 20.5652 108.746 20.5652C109.782 20.5652 110.522 19.6775 110.522 18.3459C110.522 17.0143 109.782 16.1266 108.746 16.1266C107.563 16.1266 106.971 17.0143 106.971 18.3459Z" fill="white"/>
<path d="M117.179 18.347C117.031 16.5716 118.215 15.0921 119.991 14.9441C121.766 14.7961 123.246 15.9798 123.393 17.7552C123.393 17.9032 123.393 18.1991 123.393 18.347C123.541 20.1225 122.358 21.602 120.582 21.75C118.807 21.8979 117.327 20.7143 117.179 18.9388C117.179 18.7909 117.179 18.6429 117.179 18.347ZM122.21 18.347C122.21 16.8675 121.618 16.1277 120.434 16.1277C119.251 16.1277 118.659 17.0154 118.659 18.347C118.659 19.8266 119.251 20.7143 120.434 20.7143C121.47 20.7143 122.21 19.8266 122.21 18.347Z" fill="white"/>
<path d="M125.316 15.0918H126.648V16.1274H126.796C127.092 15.3877 127.98 14.9438 128.719 14.9438C129.903 14.7959 130.939 15.6836 131.087 17.0152C131.087 17.1631 131.087 17.3111 131.087 17.459V21.7497H129.755V17.7549C129.755 16.7193 129.311 16.1274 128.275 16.1274C127.388 16.1274 126.648 16.7193 126.648 17.607C126.648 17.7549 126.648 17.7549 126.648 17.9029V21.7497H125.316V15.0918Z" fill="white"/>
<path d="M138.336 13.4648V15.0923H139.816V16.276H138.336V19.6789C138.336 20.4187 138.632 20.7146 139.224 20.7146C139.372 20.7146 139.52 20.7146 139.668 20.7146V21.7502C139.372 21.7502 139.224 21.7502 138.928 21.7502C137.449 21.7502 136.857 21.3064 136.857 19.9748V16.276H135.821V15.2403H136.857V13.4648H138.336Z" fill="white"/>
<path d="M141.592 12.4277H142.923V16.1266H143.071C143.367 15.3868 144.255 14.795 145.143 14.9429C146.326 14.9429 147.362 15.8307 147.51 17.0143C147.51 17.1623 147.51 17.3102 147.51 17.4582V21.7488H146.178V17.7541C146.178 16.7184 145.734 16.1266 144.699 16.1266C143.811 16.1266 143.071 16.7184 143.071 17.6061C143.071 17.7541 143.071 17.7541 143.071 17.902V21.7488H141.74L141.592 12.4277Z" fill="white"/>
<path d="M155.056 19.9743C154.76 21.1579 153.428 22.0456 152.097 21.8977C150.469 21.8977 148.99 20.5661 148.99 18.9386C148.99 18.7906 148.99 18.6427 148.99 18.4947C148.694 16.8672 149.877 15.2398 151.653 15.0918C151.801 15.0918 151.949 15.0918 152.097 15.0918C154.02 15.0918 155.056 16.4234 155.056 18.4947V18.9386H150.321C150.173 19.9743 150.913 20.714 151.949 20.862H152.097C152.688 21.0099 153.428 20.5661 153.724 20.1222L155.056 19.9743ZM150.321 17.755H153.724C153.724 16.8672 153.132 16.1275 152.245 15.9795H152.097C151.209 16.1275 150.321 16.8672 150.321 17.755Z" fill="white"/>
</g>
<defs>
<clipPath id="clip0_7331_91843">
<rect width="177.1" height="59.1814" fill="white"/>
</clipPath>
</defs>
</svg>
