<svg width="280" height="64" viewBox="0 0 280 64" fill="none" xmlns="http://www.w3.org/2000/svg">
<g clip-path="url(#clip0_1094_4600)">
<path d="M27.0631 20.9716V20.9418C27.0743 19.8053 27.5342 18.7192 28.3425 17.9202C29.1508 17.1212 30.2421 16.6739 31.3787 16.6758C32.5196 16.6857 33.601 17.1322 34.4046 17.9556C35.1986 18.7546 35.6444 19.8352 35.6447 20.9617V20.9914C35.6428 21.5555 35.5287 22.1135 35.3089 22.633C35.0892 23.1525 34.7683 23.6231 34.3649 24.0173C33.5514 24.8209 32.47 25.2674 31.3291 25.2574C30.766 25.2551 30.2089 25.1418 29.6897 24.9239C29.1704 24.706 28.6993 24.3878 28.3032 23.9876C27.5095 23.174 27.0631 22.1026 27.0631 20.9716ZM37.9067 31.8053V31.7755C37.9166 30.6346 38.3631 29.5631 39.1766 28.7496C39.9901 27.946 41.0715 27.4996 42.2223 27.5095C44.5736 27.5293 46.4784 29.4441 46.4784 31.7855V31.8152C46.477 32.3784 46.3641 32.9358 46.1462 33.4552C45.9282 33.9745 45.6095 34.4456 45.2085 34.8411C44.395 35.6447 43.3136 36.0912 42.1727 36.0812C41.6087 36.0793 41.0506 35.9652 40.5311 35.7455C40.0116 35.5257 39.5411 35.2048 39.1468 34.8014C38.3432 34.0078 37.9067 32.9363 37.9067 31.8053ZM20.9716 27.073H20.9418C19.8053 27.0842 18.7192 27.5441 17.9202 28.3524C17.1212 29.1607 16.6739 30.252 16.6758 31.3886C16.6857 32.5295 17.1322 33.6109 17.9556 34.4145C18.7546 35.2085 19.8352 35.6543 20.9617 35.6546H20.9914C22.1323 35.6447 23.2137 35.1983 24.0173 34.3748C24.8209 33.5613 25.2674 32.4799 25.2574 31.339C25.2532 30.2054 24.7997 29.1198 23.9963 28.3201C23.1929 27.5204 22.1051 27.0719 20.9716 27.073ZM31.7954 37.9067H31.7656C30.6247 37.9166 29.5532 38.3631 28.7397 39.1766C27.9361 39.9901 27.4897 41.0715 27.4996 42.2223C27.5194 44.5736 29.4342 46.4784 31.7755 46.4784H31.8053C32.9561 46.4685 34.0276 46.0221 34.8312 45.2085C35.6348 44.395 36.0812 43.3136 36.0713 42.1727C36.0694 41.6087 35.9553 41.0506 35.7355 40.5311C35.5158 40.0116 35.1949 39.5411 34.7915 39.1468C33.9978 38.3432 32.9363 37.9067 31.7954 37.9067Z" fill="#FB8936"/>
<path d="M31.5686 3.86939e-05C29.5844 3.86939e-05 27.7193 0.773876 26.3105 2.17273L2.16281 26.3303C1.47424 27.0194 0.928685 27.8379 0.557517 28.7385C0.186349 29.6392 -0.00310892 30.6044 3.85826e-05 31.5785C3.85826e-05 33.5627 0.773876 35.4279 2.16281 36.8267L11.9052 46.5691L16.5482 41.9261L6.18081 31.5587L7.76817 30.0209L31.5785 6.21058L61.4109 36.0331L61.5697 36.1918L61.6987 36.0132C62.6448 34.7281 63.1557 33.1744 63.157 31.5785C63.157 29.6142 62.403 27.759 61.024 26.3601L36.8267 2.16281C36.1357 1.47412 35.3155 0.928568 34.4132 0.557436C33.5109 0.186305 32.5442 -0.00311305 31.5686 3.86939e-05Z" fill="#FB8936"/>
<path d="M21.229 46.598L16.5859 51.241L26.4176 61.0727C27.7994 62.4066 29.6461 63.1503 31.5666 63.1462C33.5508 63.1462 35.4259 62.3724 36.8247 60.9735L56.9048 40.8835L52.2618 36.2405L31.5666 56.9456L21.229 46.598ZM149.944 15.6445C148.108 15.6445 146.779 16.9442 146.779 18.7399C146.779 20.5058 148.168 21.8848 149.944 21.8848C151.749 21.8848 153.059 20.5653 153.059 18.7399C153.059 16.8847 151.809 15.6445 149.944 15.6445ZM193.666 24.5833C187.257 24.5833 183.12 28.2938 183.12 34.038V39.445C183.12 45.1595 187.157 48.7112 193.666 48.7112C200.174 48.7112 204.212 45.1595 204.212 39.445V34.0281C204.212 28.2839 200.075 24.5833 193.666 24.5833ZM199.033 39.4351C199.033 42.4808 197.128 44.1574 193.666 44.1574C190.203 44.1574 188.298 42.4808 188.298 39.4351V34.0281C188.298 30.8137 190.154 29.1172 193.666 29.1172C197.178 29.1172 199.033 30.8137 199.033 34.0281V39.4351ZM211.573 41.826C209.619 41.826 208.299 43.1455 208.299 45.1198C208.299 47.0643 209.619 48.3739 211.573 48.3739C213.527 48.3739 214.887 47.0345 214.887 45.1198C214.897 43.1852 213.527 41.826 211.573 41.826ZM229.024 24.5437C222.615 24.5437 218.478 28.2541 218.478 33.9984V39.445C218.478 45.1595 222.516 48.7112 229.024 48.7112C235.532 48.7112 239.57 45.1595 239.57 39.445V33.9984C239.57 28.2442 235.433 24.5437 229.024 24.5437ZM234.391 39.4351C234.391 42.4808 232.486 44.1574 229.024 44.1574C225.562 44.1574 223.657 42.4808 223.657 39.4351V33.9884C223.657 30.774 225.512 29.0775 229.024 29.0775C232.536 29.0775 234.391 30.774 234.391 33.9884V39.4351Z" fill="#1B4196"/>
<path d="M280.002 26.4592C277.145 25.2786 273.543 24.5742 270.368 24.5742C266.38 24.5742 259.684 25.854 259.684 34.396V37.9676C259.684 42.561 262.303 47.4619 269.664 47.4619C271.182 47.4619 273.394 47.2337 275.339 46.1623L275.389 46.1325V46.192C275.428 47.1048 275.031 50.0612 272.759 51.5593C270.626 52.9582 267.521 52.7002 263.523 50.8053L261.33 54.8928C264.634 57.1151 270.567 58.0873 274.803 55.865C277.343 54.5356 278.98 52.224 279.655 49.089C279.664 49.0592 279.664 49.0394 279.674 49.0096C279.893 47.9679 280.002 46.8468 280.002 45.6266V26.4592ZM274.982 41.7871L274.922 41.8367C274.049 42.561 272.184 43.0372 270.17 43.0372C266.688 43.0372 264.852 41.2911 264.852 37.9874V34.4158C264.852 30.755 266.579 29.128 270.458 29.128C271.876 29.128 273.851 29.3065 274.873 29.6538L274.982 29.6934V41.7871Z" fill="#1B4196"/>
<path d="M262.383 55.5477C262.393 55.5477 262.393 55.5576 262.403 55.5576C262.403 55.5576 262.393 55.5576 262.383 55.5477Z" fill="#1B4196"/>
<path d="M256.953 29.1464V24.7613C253.501 24.1859 247.737 24.7216 243.818 26.7455L243.808 48.1748H248.937V30.0988L248.957 30.0889C251.1 29.2059 255.505 28.948 256.953 29.1464ZM173.24 48.0855H178.369V34.8113C178.369 28.0749 174.659 24.5232 167.635 24.5232C164.46 24.5232 160.839 25.2474 157.932 26.4677V48.0756H163.061V29.6127L163.17 29.5829C164.232 29.2654 165.938 29.0571 167.625 29.0571C172.337 29.0571 173.23 32.5691 173.23 34.9005L173.24 48.0855ZM147.327 25.0887H152.456V48.0855H147.327V25.0887ZM143.289 41.3393C143.289 36.4284 139.3 35.2379 135.203 34.4243C132.405 33.8688 130.193 33.4223 130.193 31.3786C130.193 29.7218 131.751 28.7297 134.35 28.7297C136.096 28.7297 138.298 29.325 140.094 30.2873L142.078 26.428C139.549 25.1085 136.969 24.4141 134.618 24.4141C130.372 24.4141 125.421 26.2395 125.421 31.3687C125.421 37.1725 132.028 38.353 134.201 38.74C136.334 39.1269 138.427 39.6626 138.427 41.5575C138.427 43.2739 136.8 44.3354 134.181 44.3354C131.899 44.3354 129.35 43.4524 127.356 41.9742L125.352 45.8831C127.911 47.7284 130.937 48.7006 134.102 48.7006C139.767 48.7106 143.289 45.8831 143.289 41.3393Z" fill="#1B4196"/>
<path d="M120.878 30.3255C120.799 30.0775 120.72 29.8294 120.63 29.6013C120.73 29.8394 120.799 30.0775 120.878 30.3255ZM120.134 28.5496C119.995 28.3016 119.827 28.0933 119.668 27.875C119.827 28.0933 119.995 28.3115 120.134 28.5496Z" fill="#1B4196"/>
<path d="M120.311 28.9286C119.653 27.6322 118.637 26.5513 117.384 25.8134C112.83 23.1149 106.074 24.603 103.624 25.9126L104.923 29.9107C105.727 29.4841 110.668 27.9265 113.773 29.3155C113.803 29.3254 113.833 29.3353 113.862 29.3552C113.981 29.4048 114.11 29.4345 114.219 29.4941C114.358 29.5734 114.467 29.6925 114.596 29.7917C114.636 29.8215 114.676 29.8611 114.725 29.8909C114.954 30.0695 115.162 30.2679 115.341 30.4862C115.35 30.4961 115.36 30.5159 115.37 30.5258C116.015 31.3493 116.362 32.4208 116.362 33.7899V34.1768L116.194 34.1569C114.805 33.9684 113.168 33.7799 111.66 33.7799C105.41 33.7799 101.828 36.4388 101.828 41.0818C101.828 43.9291 103.128 48.711 111.838 48.711C113.991 48.711 117.354 48.4233 121.174 47.0641C121.273 47.0344 121.323 47.0145 121.353 47.0046V33.7402C121.353 32.8176 121.273 31.9644 121.105 31.1707C121.105 31.1608 121.105 31.1509 121.095 31.1409C120.936 30.377 120.698 29.6826 120.38 29.0476C120.351 29.0079 120.331 28.9583 120.311 28.9286ZM116.352 43.7108L116.243 43.7406C115.063 44.0779 113.287 44.3061 111.828 44.3061C108.664 44.3061 106.848 43.1156 106.848 41.0222C106.848 38.8496 108.465 37.788 111.789 37.788C113.227 37.788 115.033 37.9864 116.233 38.165L116.362 38.1848V43.7108H116.352Z" fill="#1B4196"/>
<path d="M116.9 25.5142C116.791 25.4547 116.672 25.415 116.562 25.3555C116.672 25.4051 116.781 25.4547 116.9 25.5142ZM119.529 47.6182C119.717 47.5586 119.876 47.519 120.045 47.4594C119.866 47.519 119.698 47.5686 119.529 47.6182ZM118.557 26.6551C118.319 26.4468 118.07 26.2384 117.813 26.0599C118.08 26.2484 118.319 26.4567 118.557 26.6551Z" fill="#1B4196"/>
<path d="M80.3097 19.9219C77.8195 21.9954 76.5 25.0808 76.5 28.831V36.9265C76.5 40.6865 77.8195 43.7621 80.3097 45.8355C82.532 47.6908 85.6968 48.7126 89.2088 48.7126C92.4827 48.7126 95.588 47.8793 98.3162 46.1232L96.0344 41.7183C95.5681 41.9763 90.7465 44.5557 86.5103 43.3652C83.5241 42.5219 81.8772 40.2203 81.8772 36.8868V28.8806C81.8772 25.5471 83.5241 23.2455 86.5103 22.4022C90.6969 21.2216 95.3896 23.6919 96.0344 24.0491L98.1972 19.5747C95.4689 17.8187 92.4827 17.0548 89.2088 17.0548C85.6968 17.0448 82.532 18.0667 80.3097 19.9219Z" fill="#1B4196"/>
</g>
<defs>
<clipPath id="clip0_1094_4600">
<rect width="280" height="63.157" fill="white"/>
</clipPath>
</defs>
</svg>
