<svg xmlns="http://www.w3.org/2000/svg" viewBox="0 0 599.14 113.08"><defs><style>.cls-1{fill:#b11116;}</style></defs><title>press__crains-cleveland</title><g id="Layer_2" data-name="Layer 2"><g id="CCLB"><path class="cls-1" d="M599,36.19H572c-1.43-8.1-6.35-14.61-17.78-14.61-9.53,0-15.72,4.13-15.72,11.11,0,6.2,4.44,8.9,13,10.64l15.08,3.5c19.85,4.28,32.56,12.38,32.56,31,0,21.6-17.79,35.09-44.78,35.09-24.3,0-46.21-11.75-48.75-38.42h27c1.75,9.52,9.85,15.72,22.55,15.72,9.53,0,15.25-3.82,15.25-9.85,0-3.81-2.07-7.78-11.44-9.53l-17.78-3.81C520,62.39,510,52.7,510,35.56,510,13.97,527.46.31,552.87.31,570.3.3,596.34,7.13,599,36.19ZM503.13,14.56c0,3.5-.16,5.4-4.76,13.18l-9.53,15.88H474.55L482.81,26c-5.56-2.39-8.26-6.51-8.26-11.44,0-7.62,6.35-13.65,14.29-13.65S503.13,6.97,503.13,14.56ZM468.83,2.2V110.84H448.06L395.98,51.25v59.59h-27V2.2h20.61l52.4,61.19V2.2Zm-135.24,0h27V110.84h-27ZM283,1.56l46,109.28H300.3L293,92.15H247l-7.19,18.69h-22.5l-4.07-5.35L257.16,1.56Zm1,67.58L269.94,33.03,255.88,69.14Zm-70.76,36.35,4.07,5.35h-6.33Zm-23.89-31.4,23.89,31.4L211,110.84H184.87L161.39,79.37H144.61v31.47h-27V2.2h47.45c27,0,45.06,14.7,45.06,38.18C210.12,55.56,202.29,67.56,189.35,74.09Zm-6.23-33.71c0-8.78-8.15-14.38-18.54-14.38h-20V55.08h20C175,55.08,183.12,49.33,183.12,40.38Zm-71.79,3.04H83.11C79.35,32.11,70.3,25.21,57.33,25.21c-17.73,0-30,13.26-30,31.31s12.31,31.32,30,31.32c13,0,22-6.91,25.79-18.24h28.21c-4.91,26-25.65,43.48-53.84,43.48C24.74,113.08,0,89.27,0,56.56S24.77,0,57.52,0C85.68-.04,106.41,17.42,111.33,43.42Z"/></g></g></svg>