<svg width="674" height="238" viewBox="0 0 674 238" fill="none" xmlns="http://www.w3.org/2000/svg">
<path d="M12.5999 174.1V161.8C10.1999 161.8 8.59991 162.4 6.59991 163.6C3.19991 165.6 0.199911 170.7 1.19991 175.7C2.99991 174.9 4.39991 174.5 6.39991 174.1C8.69991 173.9 10.1999 173.9 12.5999 174.1ZM658.5 162.2L649.2 175.1L645.6 175.5L644.4 174.9L644 173.9V159.6C645.6 160.8 648 162.2 650.7 162.8C653.7 163 655.7 163 658.5 162.2ZM673.6 139.2C673.4 138.4 671.8 134.4 669 133.2C668.4 133 664.2 132 663.2 133.2C662.2 134.4 663 134.8 664.2 135.8C667.2 138.4 670 140.6 669.8 144.5C669.6 148.1 668.2 151 664.8 151.8C660.8 153 658.3 149.8 656.7 148.6L655.7 147.8L654.7 147.4L653.5 147.8L628.7 161.3L627.9 162.1L627.7 163.3V180.6L628.1 181.8L628.7 182.2H643.4L628.1 204.2C624.7 206.8 621.6 213.3 621.4 217.3C621.2 222.1 621.2 226.6 625.2 229.2C627.8 230.8 632.7 231 632.5 229C632.3 227.8 631.1 227.8 630.3 227.2C627.3 224.2 624.9 221.8 624.9 217.7C624.9 211.2 631.8 207.6 638.6 207C645.1 206.6 650.7 211.4 653.7 214.9C654.3 215.1 654.3 216.5 655.1 216.5L656.1 215.9L669.6 203L670.2 202C670.4 201.6 670.4 201 670.4 200.4V176.8L670 175.6L668.8 175H653.9L669.6 153.6C674.3 150.1 674 140.4 673.6 139.2ZM653.7 200.1L653.3 200.9L652.5 200.5C650.1 199.5 648.5 198.9 646 198.9C642.6 198.7 640 199.1 636.9 200.5L649 182.8H653.8V200.1M631.5 150.9L631.9 150.1L631.5 149.3L629.7 147.5L628.9 147.3L628.3 147.9L619.4 157.2L618.4 157.6L617.4 157L608.1 148.1L606.9 147.5L605.7 147.9L596.2 157.8L595.8 158.4L596 159L597.6 160.6L598.2 160.8L598.4 160.6L598.8 160.2H599.4L600 160.6L603.2 164L603.6 165V165.8L603.4 204.9L603.2 205.9L602.2 206.1L595.5 200.7L594.9 200.1L594.7 199.5V160.4C594.7 159.8 594.5 159.8 594.3 159.4L593.9 158.8L582.8 148.1L582 147.7L581 148.1L571.1 158.2L570.7 158.8L570.9 159.4L572.3 161L572.9 161.2L573.3 161L573.7 160.6H574.1L574.7 161L577.9 164.4L578.3 165.4V198.1L577.9 199.3L576.9 199.9L572.1 203.9L570.9 203.1C570.5 202.7 570.1 202.3 570.1 201.7V147.7C570.1 142.7 564.3 142.5 560.6 140C555.2 136.2 554.6 132.7 554.4 131.7C554.2 130.5 554 125 553.4 124.4C553.2 123.2 551.8 121.6 551.6 121.8C551.4 122 551.4 124 550.8 125.2C550.6 126.2 550 127 549 128.6C547.2 131.2 545.8 133.2 545.8 136.5C546 140.5 550 142.3 552 145C553 146.2 553.4 147.6 553.4 149.2V201.6L553 202.8L552 203.8L542.5 212.5L541.9 213.5L542.1 214.1L543.9 215.9L544.7 216.3L545.7 215.9L554.8 207.6L556 207.2L557.2 207.6L565.1 215.7L566.1 216.1C566.7 216.1 567.1 215.5 567.5 215.1L578 205L579.2 204.6L580.4 205L591.7 215.7L593.3 216.7C593.9 216.7 594.3 216.3 594.9 216.1L619.9 203.2L620.1 164.7C620.1 164.1 621.7 163.1 622.3 162.1L622.9 161.1L631.5 150.9ZM534.8 171.9L534.4 172.9L527.1 180L526.1 180.4L525.3 179.4V163L525.7 162.2L526.5 162.6L534.2 170.5L534.8 171.9ZM547.5 163.8C547.5 163 546.7 162.2 546.3 161.6L532.4 147.5L531.2 146.9L529.6 147.1L504 162.4C505.6 162.6 507 163.6 507.6 164.2C508.2 164.6 509.2 165.8 509.2 166.8L509.4 201.7C509.4 202.3 509 202.9 508.8 203.3L508.2 203.9L498.7 212.6L498.1 213.6L498.3 214.2L500.1 216L500.9 216.4L501.9 216L511 207.7L512.2 207.3L513.4 207.7L521.5 215.4L522.7 216.2C523.3 216.2 523.9 215.8 524.3 215.2L541 198.5L541.6 197.3L541.2 196.3L540.2 195.3L539.4 194.7L538.4 195.1L530.3 203.6L529.3 204.2L528.7 203.8L528.1 203L527.3 202C526.7 201.2 525.7 200.4 525.7 199.4V190.7C525.7 189.7 525.3 188.9 525.7 188.1C525.9 187.5 526.5 187.1 526.9 186.5L546.7 165.7C546.9 165.4 547.5 164.6 547.5 163.8ZM488.6 163.4C488 164.2 487 164.8 486 165C484.4 165.2 483 164.6 482 163.4L475.3 153.3C477.7 154.3 479.7 154.5 482.2 154.3C484.8 154.1 486.6 153.5 488.6 152.1V163.4ZM446.3 177.5V165.2C443.9 165.2 442.3 166 440.3 167C436.9 169 433.9 174.1 434.7 179.1C436.5 178.3 437.9 177.7 439.9 177.5C442.3 177.1 443.9 177.1 446.3 177.5ZM513 123.5C507.8 126.9 504.1 127.7 497.3 126.7C492.1 126.1 487.6 121.1 485.4 120.5C484.8 120.1 484.2 119.9 483.4 119.9C482.4 119.9 481.6 120.7 480.8 121.3L466.9 134.6L466.5 135.4L466.7 136.2L468.3 138L469.3 138.2L469.9 138L474.3 134.2L475.1 133.6L476.3 134.6C478.1 136 479.3 137.6 481.1 138.4C483.9 139.8 485.9 140.6 489 140.8V147.9C486.6 149.5 484.8 150.1 482.3 150.5C478.9 150.9 476.3 150.5 473 148.9L460.9 130.2C456.9 123.8 451.8 118.9 444 119.7C438.8 120.1 434.7 121.9 432.3 126.4C430.7 129.4 430.3 135.1 432.9 139.3C432.9 134.9 437.1 131 440.2 131C447.3 131 448.9 141.7 448.9 141.7L449.1 196.3C445.7 196.5 443.5 197.3 440.6 198.9C436.8 200.9 434.2 203.3 432.5 207.2C430.1 212.6 430.3 220.3 432.9 224.5C439.3 235.6 451 234 454.3 233C456.7 232.4 457.1 231.2 458.3 230C453.7 233.4 444.8 229 443.6 227C439 220.3 443.4 213.5 449.4 212.3C453.8 211.5 457.5 213.3 461.7 216.7L462.1 216.9L462.5 216.7L475.8 203.2L476 202.6L475.8 202.2L474.2 200.6L473.6 200.2L472.8 200.6L469.4 203C469 203.2 468.8 203.8 468.2 203.8L467.2 203.2C465.2 202 464.4 200.6 462.6 199.6C460.2 198 458.4 197.4 455.7 196.8V187.3C458.5 185.5 460.9 184.7 464 184.3C468 183.9 470.7 184.3 474.5 185.9L495.7 219.2V141C500.3 140.8 503.2 139.4 506.8 136.6C510.6 133 512.6 129.1 513 123.5ZM461 166C460.4 166.8 459.6 167.2 458.6 167.4C457.4 167.6 456 167.2 455 166.6V156.9L461 166ZM488.6 173.7L485.2 168.7C485.8 168.9 486.4 168.9 487 168.7C487.6 168.7 488.2 168.3 488.6 168.1V173.7ZM470.9 181.1C467.7 180.1 465.5 179.9 462.2 180.5C459.4 180.9 457.6 181.5 455.1 183.1V170C456.7 170.8 458.1 171 459.7 170.8C461.1 170.6 462.1 170 463.3 169L470.9 181.1ZM406.6 152.1L407.4 151.1L407.2 150.1L405 148.5H404L403 149.3L395.5 156.6C395.1 157 394.5 157.4 393.9 157.4L392.7 156.6L379.8 147.9C379.4 147.5 378.8 147.1 378.2 147.1C377.6 147.1 377 147.3 376.4 147.5L357.1 160.4C356.5 160.8 356.1 161.4 355.7 162C355.5 162.6 355.3 163.4 355.3 164.2L355.5 201.5C355.5 202.1 355.1 202.7 354.9 203.1L354.3 203.7L344.8 212.4L344.2 213.4L344.4 214L346.2 215.8L347 216.2L348 215.8L357.1 207.5L358.3 207.1L359.5 207.5L367.6 215.2L368.8 216C369.4 216 370 215.4 370.4 215L380.7 205.3L381.3 204.3L380.9 203.3L379.9 202.3L378.9 201.7L377.9 202.1L376.1 203.7L375.1 204.3L374.5 203.9L372.3 201.9L371.9 201.1L371.7 200.5V162.6L380.6 169.9L381.6 170.9L382 171.9V199.3C382 204.1 383.2 206.8 385.8 210.8C388.2 214.6 390.4 214.8 393.1 217.5C395.7 220.5 394.3 221.5 394.3 223.3C388.3 218.7 383.4 217.1 375.8 217.5C364.9 218.1 356.9 223.7 352.4 233.6C357.8 228.4 365.9 227.1 370.5 227.4C376.5 227.8 378.4 230 382.8 232.8L385.2 234.4L386.4 235.2L387.4 234.6L401.9 220.3C404.5 217.9 406.1 215.1 405.7 211.6C405.1 205.4 399.7 204.9 398.2 199.7L397.8 198.5V161.8L398.2 160.8L406.6 152.1ZM348.6 204.3L349.2 203.1L348.8 202.1L347.8 201.1L346.8 200.5L345.8 200.9L342.6 203.7L341.6 204.5L341 204.1L340 202.9L339.2 201.9L338.6 200.9V161.2L339.2 160.2L348.5 150.7L348.9 149.7L348.5 148.9L346.7 147.3L345.9 147.1L345.3 147.7L336.6 156.4L335.4 156.8L334.4 156.2L324.9 147.3L324.1 146.9L323.1 147.3L313 157L311.8 157.4L310.8 156.8L301.5 147.9L300.5 147.5L299.5 147.9L288.2 159.2L287.8 159.8L288 160.4L289.8 162.4L290.4 162.6L290.8 162.4L292.8 160.8H293.4L294 161.2L296.4 163.6L296.8 164.4V201.7C296.8 202.3 296.4 202.9 296.2 203.3L295.6 203.9L286.1 212.6L285.5 213.6L285.7 214.2L287.5 216L288.3 216.4L289.3 216L298.4 207.7L299.6 207.3L300.8 207.7L308.9 215.4L310.1 216.2C310.7 216.2 311.3 215.6 311.7 215.2L321.8 205.5L322.4 204.7L322 203.9L320.4 202.5L319.6 201.9L318.6 202.5L317.2 203.5L316.2 204.1L315.6 203.7L314.8 202.9L314 201.9L313.6 200.9V163C313.6 162.4 314.6 161.8 314.6 161.6L316.4 160.2H317.2L318.2 160.8L321.4 164L322 164.6L322.4 165.6V201.5L322.6 202.5L323.2 203.3L335.3 215.4L336.9 216.4C337.5 216.4 337.9 215.8 338.1 215.4L348.6 204.3ZM279.2 135.4L271.1 143.3L270.5 143.5L269.9 143.3L263.2 136L262.4 134.8L263 133.6L269.7 126.9L270.7 126.3L271.7 126.5L278.6 133.2L279.4 134.4L279.2 135.4ZM289.9 204.3L278.2 215.2C277.8 215.6 277.2 216.2 276.6 216.2L275.4 215.4L267.3 207.7L266.1 207.3L264.9 207.7L255.8 216L254.8 216.4L254 216L252.2 214.2L252 213.6L252.6 212.6L262.1 203.9L262.7 203.3C262.9 202.9 263.3 202.3 263.3 201.7V167.6L263.1 166.6L262.9 165.8L260.3 162.6L259.7 162.4H259.1L257.7 163.6L257.3 163.8L256.7 163.6L254.9 161.6L254.7 160.8L255.1 160.4L268.2 147.7L269.2 147.3L270.2 147.7L279.1 158C279.1 158.2 279.5 158.6 279.7 159.2C279.9 160.2 279.7 160.2 279.7 160.6V201.5L280.3 202.5L281.1 203.5L282.3 204.7L282.9 205.1L283.9 204.5L287.1 201.7L288.1 201.3L288.9 201.9L289.9 202.9L290.3 203.9L289.9 204.3ZM256.7 204.3L257.3 203.1L256.9 202.1L255.9 201.1L254.9 200.5L253.9 200.9L250.7 203.7L249.7 204.3L249.1 203.9L248.1 202.7L247.3 201.7L246.7 200.7V161L247.3 160L256.6 150.5L257 149.5L256.6 148.7L254.8 147.1L254 146.9L253.4 147.5L244.7 156.2L243.5 156.6L242.5 156L233 147.1L232.2 146.7L231.2 147.1L221.1 156.8L219.9 157.2L218.9 156.6L209.6 147.7L208.6 147.3L207.6 147.7L196.4 159L196 159.6L196.2 160.2L198 162.2L198.6 162.4L199 162.2L201.2 160.6H201.8L202.4 161L204.8 163.4L205.2 164.2V201.5C205.2 202.1 204.8 202.7 204.6 203.1L204 203.7L194.5 212.4L193.9 213.4L194.1 214L195.9 215.8L196.7 216.2L197.7 215.8L206.8 207.5L208 207.1L209.2 207.5L217.3 215.2L218.5 216C219.1 216 219.7 215.4 220.1 215L230.2 205.3L230.8 204.5L230.4 203.7L228.8 202.3L228 201.7L227 202.3L225.6 203.3L224.6 203.9L224 203.5L223.4 202.7L222.6 201.7L222.2 200.7V162.8C222.2 162.2 223.2 161.6 223.2 161.4L225 160H225.6L226.6 160.6L229.8 163.8L230.4 164.4L230.8 165.4V201.3L231 202.3L231.6 203.1L243.7 215.2L245.3 216.2C245.9 216.2 246.3 215.6 246.5 215.2L256.7 204.3ZM191.6 166.2C193 163.4 193.8 162.8 193.2 158.1C192.8 155.1 191.6 153.5 190 151C188.8 149.2 187.4 147.8 186.6 147.4L185.6 147L184.6 147.8L175.1 156.9L173.9 157.3L172.9 156.7L163.6 147.8L162.6 147.4L161.6 147.8L150.4 159L150 159.6L150.2 160.2L152 162.2L152.6 162.4L153 162.2L155 160.6H155.6L156.2 161L158.6 163.4L158.8 164.4L159 165.4L159.2 201.5C159.2 202.1 158.8 202.7 158.6 203.1L158 203.7L148.5 212.4L147.9 213.4L148.1 214L149.9 215.8L150.7 216.2L151.7 215.8L160.8 207.5L162 207.1L163.2 207.5L171.3 215.2L172.5 216C173.1 216 173.7 215.4 174.1 215L185.8 204.1L186.4 202.9L186 201.9L185 200.9L184.2 200.3L183.2 200.7L180 203.5L179 204.1L178.4 203.7L177.2 202.5L176.4 201.5L175.8 200.5L176 162.2C177 162.4 178 162.4 179.2 162.4C182.4 162.2 184 159.8 187.1 160.4C188.3 161 191.3 163.6 191.6 166.2ZM130.7 200.5C130.7 201.1 130.9 202.1 130.5 202.3C130.1 202.5 129.3 201.7 128.7 201.1L122.2 194.2L121.8 193.2C121.6 192.6 121.6 192.2 121.6 191.4V162C121.6 161 121.6 159.6 122.2 159.6L122.8 159.8L129.2 166L130.2 167.2C130.4 167.8 130.6 168.4 130.6 169V200.6H130.7V200.5ZM147 200.5V163.8C147 163.2 147 162.6 146.8 162C146.6 161.4 146.2 161 145.8 160.6L132.7 147.5C132.3 147.1 131.9 146.5 131.3 146.5L130.1 146.9L106.9 159.6C106.3 159.8 106.5 159.8 105.7 160.8C105.1 161.4 105.3 161.8 105.3 162.4L105.5 201.3C105.5 201.9 105.1 202.5 104.9 202.9L104.3 203.5L94.7999 212.2L94.1999 213.2L94.3999 213.8L96.1999 215.6L96.9999 216L97.9999 215.6L107.1 207.3L108.3 206.9L109.5 207.3L117.6 215L118.8 215.8C119.4 215.8 120 215.4 120.6 215.2L146.4 202.3L147 201.3V200.5ZM72.5999 172.7C71.5999 172.3 70.7999 172.3 69.7999 172.3C68.7999 172.3 68.1999 172.5 67.3999 172.9V159.6C67.9999 159.8 68.5999 160 69.3999 160C70.5999 160 71.5999 159.6 72.5999 159V172.7ZM45.9999 119.2C40.3999 121.4 36.8999 122.4 30.8999 123C25.0999 123.6 21.3999 121.2 15.5999 122.8C10.7999 124 7.29991 125.4 4.49991 129.3C1.09991 134.1 0.0999089 138.8 2.09991 144.6C5.09991 140.4 7.89991 138.2 12.5999 136.5C17.7999 134.5 22.8999 136.7 27.0999 135.9C28.8999 135.5 29.8999 134.7 31.0999 133.5L45.9999 119.2ZM101.3 122.5L100.9 121.7L99.0999 120.1L98.2999 119.9L97.4999 120.3L88.9999 128.2L87.7999 128.4L86.7999 127.8L78.2999 120.1L77.6999 119.7L76.4999 120.1L64.1999 132.4L63.1999 133.4L62.1999 132.8L49.2999 120.5C49.0999 120.3 48.6999 120.1 48.0999 120.1L47.0999 120.7L17.0999 149.7C15.8999 150.7 15.4999 151.9 15.0999 153.5C14.4999 155.3 13.8999 156.7 13.8999 158.9V192C13.8999 193.8 13.2999 195 12.6999 196.8C11.8999 198.6 10.8999 200 9.49991 201.6C15.2999 201.8 19.3999 200 22.9999 195.8C24.9999 193.4 26.7999 191.4 26.7999 188.3V148.2C26.7999 147 27.3999 146.2 27.9999 145C28.3999 144.2 28.5999 143.4 29.1999 143L34.5999 137.4C34.9999 136.8 35.9999 136.2 36.7999 136.4C38.3999 136.4 40.7999 137.4 40.7999 139.4V156.7C40.3999 157.9 39.1999 158.7 38.1999 158.7C37.1999 158.7 35.9999 157.9 35.5999 157.1V142.6H30.3999V191.6C30.3999 193.8 29.3999 195.4 28.3999 197.2C25.1999 202.6 18.6999 203.2 14.2999 205.1C9.49991 207.1 5.39991 211.6 3.19991 215C1.19991 218.2 -1.00009 224.7 1.39991 229.9C4.39991 236.1 11.0999 238.6 17.8999 237.2C23.2999 236 24.5999 232.8 25.7999 228.5C24.3999 231.1 19.5999 232.3 18.4999 231.9C15.2999 231.3 12.8999 229.1 13.0999 225.9C13.4999 219 21.1999 217.2 26.1999 212.8C31.3999 208.2 35.4999 204.5 35.4999 197.5V178.8C36.0999 177.8 37.2999 177.4 38.4999 177.6C39.4999 177.8 40.2999 178.2 40.8999 179V201.6C40.8999 202.2 40.6999 202.8 40.4999 203.2L39.8999 203.8L30.3999 212.5L29.7999 213.5L29.9999 214.1L31.7999 215.9L32.5999 216.3L33.5999 215.9L42.8999 207.6L43.8999 207.2L45.0999 207.6L53.1999 215.3L54.3999 216.1C54.9999 216.1 55.5999 215.5 55.9999 215.1L66.0999 205.2L66.8999 204.2L66.4999 203.2L65.2999 202.2L64.4999 201.6L63.4999 202.2L62.2999 203.6L61.2999 204.2L60.6999 203.8L60.0999 203L59.4999 202.2L58.6999 201.4V143C58.6999 138.8 61.2999 134.7 65.1999 134.5C68.9999 134.5 72.4999 137.1 72.4999 140.9V155.2C71.6999 156.2 70.8999 156.4 69.6999 156.4C68.6999 156.4 67.8999 156 67.2999 155.4V140H62.0999V199.5H67.2999V176.9C67.8999 176.1 68.8999 175.7 70.0999 175.7C71.0999 175.7 72.0999 176.3 72.4999 177.3V201.3C72.4999 202.3 72.8999 203.1 73.2999 203.9L74.4999 205.3L84.7999 215.2L85.9999 216C86.5999 216 87.1999 215.4 87.5999 215L97.8999 204.9L98.4999 203.9L98.0999 202.9L96.8999 201.7L96.0999 201.3L95.4999 201.7L93.8999 203.1L92.6999 203.5L92.0999 203.1L91.0999 201.9L90.4999 200.9V135L90.6999 133.6L91.2999 132.6L100.6 123.3L101.3 122.5ZM40.5999 174.5C39.5999 174.1 38.7999 174.1 37.7999 174.1C36.7999 174.1 36.1999 174.3 35.3999 174.7V161.4C35.9999 161.6 36.5999 161.8 37.3999 161.8C38.5999 161.8 39.5999 161.4 40.5999 160.8V174.5ZM588.8 43.9002L579.5 56.8002L575.9 57.2002L574.7 56.6002L574.3 55.6002V41.3002C575.9 42.5002 578.3 43.9002 581 44.5002C584 44.9002 586 44.7002 588.8 43.9002ZM603.9 21.1002C603.7 20.3002 602.1 16.3002 599.3 15.1002C598.7 14.9002 594.5 13.9002 593.5 15.1002C592.5 16.3002 593.3 16.7002 594.5 17.7002C597.5 20.3002 600.3 22.5002 600.1 26.4002C599.9 30.0002 598.5 32.9002 595.1 33.7002C591.1 34.9002 588.6 31.7002 587 30.5002L586 29.7002L585 29.3002L583.8 29.7002L559 43.3002L558.2 44.1002L558 45.3002V62.6002L558.4 63.8002L559.2 64.2002H573.9L558.6 86.2002C555.2 88.8002 552.1 95.3002 551.9 99.3002C551.7 104.1 551.7 108.6 555.7 111.2C558.3 112.8 563.2 113 563 111C562.8 109.8 561.6 109.8 561 109.2C558 106.2 555.6 103.8 555.6 99.7002C555.6 93.2002 562.5 89.6002 569.3 89.0002C575.8 88.6002 581.4 93.4002 584.4 96.9002C585 97.1002 585 98.5002 585.8 98.5002L586.8 97.9002L600.3 85.0002L600.9 84.0002C601.1 83.6002 601.1 83.0002 601.1 82.4002V58.8002L600.7 57.6002L599.5 57.0002H584.6L600.3 35.6002C604.7 31.8002 604.3 22.1002 603.9 21.1002ZM584 81.8002L583.6 82.6002L582.8 82.2002C580.4 81.2002 578.8 80.6002 576.3 80.6002C572.9 80.4002 570.3 80.8002 567.2 82.2002L579.3 64.5002H584.1V81.8002M527.3 45.3002L527.1 54.8002L526.9 56.0002C526.7 56.4002 524.7 56.2002 523.3 56.2002C516.9 55.8002 510.4 45.3002 510.4 42.7002C513.6 44.5002 516.6 45.1002 519.5 45.1002C522.3 45.1002 526.2 44.1002 526.6 43.9002C527.3 43.3002 527.3 44.7002 527.3 45.3002ZM554.9 33.2002L554.5 32.2002L552.5 30.6002L551.5 30.4002L550.7 31.0002L542.2 39.3002L541.4 40.1002L540.2 39.5002L530.9 29.6002C530.5 29.0002 529.7 28.4002 529.3 28.4002L528.1 29.4002C527.9 29.6002 526.7 33.4002 524.1 35.6002C521.1 38.0002 518.7 39.0002 515.2 39.0002C516 38.0002 516.6 37.0002 516.8 35.6002C517.2 33.2002 516.2 31.0002 514.2 29.6002C511.6 27.8002 507.5 28.4002 505.7 31.2002C502.9 34.8002 504.9 41.3002 505.5 43.3002C507.5 48.5002 511.9 54.4002 514.8 56.4002C511.8 57.4002 510 58.4002 507.7 60.2002C502.9 64.2002 500.8 68.5002 499.8 74.9002C499.2 79.3002 499.2 82.4002 501 86.4002C502.6 90.0002 504.4 92.2002 507.5 94.3002C510.1 96.1002 512.1 97.3002 515.4 97.9002L516.6 97.3002L526.7 88.0002L527.7 87.2002L529.1 88.0002L539.2 97.3002L540.4 98.1002C541.2 98.1002 541.6 97.5002 542 97.1002L552.1 87.2002L552.9 86.2002L552.3 85.2002L551.3 84.2002L550.5 83.6002L549.5 84.2002L547.7 85.8002L546.7 86.4002L546.1 86.0002L545.5 85.2002L544.7 84.2002L544.1 83.0002V45.7002L544.3 44.5002L544.9 43.7002L554.4 34.0002L554.9 33.2002ZM527.3 80.6002C527.3 83.6002 523.5 84.4002 520.6 84.4002C516.6 84.4002 514.4 81.2002 513.1 77.5002C511.5 73.7002 511.9 69.6002 514.5 66.0002C517.3 62.0002 522.6 59.3002 526.2 60.6002C527 61.0002 527.4 61.6002 527.4 62.6002L527.3 80.6002ZM498.9 87.0002L499.5 86.0002L499.1 85.0002L498.1 84.0002L497.1 83.4002L496.1 84.0002L494.3 85.6002L493.3 86.2002L492.7 85.8002L492.1 85.0002L491.3 84.0002L490.9 83.0002V1.00018L480 6.20018L478.8 6.60019L477.6 6.00018L473.8 1.20018V83.2002C473.8 83.8002 473.4 84.4002 473.2 84.8002L472.6 85.4002L463.1 94.1002L462.5 95.1002L462.7 95.7002L464.5 97.5002L465.5 97.9002L466.5 97.5002L475.6 89.2002L476.8 88.8002L478 89.2002L486.1 96.9002L487.3 97.7002C487.9 97.7002 488.5 97.1002 488.9 96.7002L498.9 87.0002ZM465.7 87.0002L466.3 86.0002L465.9 85.0002L464.9 84.0002L463.9 83.4002L462.9 84.0002L461.1 85.6002L460.1 86.2002L459.5 85.8002L459 85.0002L458.2 84.0002L457.8 83.0002V1.00018L446.9 6.20018L445.7 6.60019L444.5 6.00018L440.7 1.20018V83.2002C440.7 83.8002 440.3 84.4002 440.1 84.8002L439.5 85.4002L430 94.1002L429.4 95.1002L429.6 95.7002L431.4 97.5002L432.4 97.9002L433.4 97.5002L442.5 89.2002L443.7 88.8002L444.9 89.2002L453 96.9002L454.2 97.7002C454.8 97.7002 455.4 97.1002 455.8 96.7002L465.7 87.0002ZM408.4 45.3002L408.2 54.8002L408 56.0002C407.8 56.4002 405.8 56.2002 404.4 56.2002C398 55.8002 391.5 45.3002 391.5 42.7002C394.7 44.5002 397.7 45.1002 400.6 45.1002C403.4 45.1002 407.3 44.1002 407.7 43.9002C408.2 43.3002 408.4 44.7002 408.4 45.3002ZM435.8 33.2002L435.4 32.2002L433.4 30.6002L432.4 30.4002L431.6 31.0002L423.1 39.3002L422.3 40.1002L421.1 39.5002L411.8 29.6002C411.4 29.0002 410.6 28.4002 410.2 28.4002L409 29.4002C408.8 29.6002 407.6 33.4002 405 35.6002C402 38.0002 399.6 39.0002 396.1 39.0002C396.9 38.0002 397.5 37.0002 397.7 35.6002C398.1 33.2002 397.1 31.0002 395.1 29.6002C392.5 27.8002 388.4 28.4002 386.6 31.2002C383.8 34.8002 385.8 41.3002 386.4 43.3002C388.4 48.5002 392.8 54.4002 395.7 56.4002C392.7 57.4002 390.9 58.4002 388.6 60.2002C383.8 64.2002 381.7 68.5002 380.7 74.9002C380.1 79.3002 380.1 82.4002 381.9 86.4002C383.5 90.0002 385.3 92.2002 388.4 94.3002C391 96.1002 393 97.3002 396.3 97.9002L397.5 97.3002L407.6 88.0002L408.6 87.2002L410 88.0002L420.1 97.3002L421.3 98.1002C421.9 98.1002 422.5 97.5002 422.9 97.1002L433 87.2002L433.8 86.2002L433.2 85.2002L432.2 84.2002L431.4 83.6002L430.4 84.2002L428.6 85.8002L427.6 86.4002L427 86.0002L426.4 85.2002L425.6 84.2002L425 83.0002V45.7002L425.2 44.5002L425.8 43.7002L435.3 34.0002L435.8 33.2002ZM408.2 80.6002C408.2 83.6002 404.4 84.4002 401.5 84.4002C397.5 84.4002 395.3 81.2002 394 77.5002C392.4 73.7002 392.8 69.6002 395.4 66.0002C398.2 62.0002 403.5 59.3002 407.1 60.6002C407.9 61.0002 408.3 61.6002 408.3 62.6002V80.6002M356.6 36.0002C354 38.4002 351.2 39.4002 347.5 39.4002C344.3 39.2002 341.7 38.2002 339.6 36.2002V17.5002C342 15.5002 344.4 14.9002 347.7 14.9002C352.1 14.7002 356.6 17.3002 356.6 21.6002C356.6 21.7002 356.6 36.0002 356.6 36.0002ZM309.5 52.5002V40.2002C307.1 40.2002 305.5 40.8002 303.5 42.0002C300.1 44.0002 297.1 49.1002 298.1 54.3002C299.9 53.5002 301.3 52.9002 303.3 52.7002C305.8 52.1002 307.4 52.1002 309.5 52.5002ZM331.4 22.1002C328.4 20.5002 320.5 20.9002 317.7 22.9002C313.9 25.7002 311.9 29.1002 311.9 33.6002V65.4002C311.9 68.0002 311.5 69.8002 310.5 71.9002C309.5 73.9002 308.1 75.1002 306.1 76.1002C311.5 78.1002 316.2 77.3002 320.8 74.1002C324.8 71.3002 327.3 67.6002 327.3 63.0002V31.0002C327.3 29.0002 327.5 27.8002 328.1 26.0002C329 24.3002 330 23.3002 331.4 22.1002ZM375 83.0002V19.5002C375 14.7002 372.2 9.40018 367.7 5.40018C361 -0.599824 353.4 -0.799824 344.5 1.40018C334.6 3.80018 331 7.00019 322.1 6.60019C312.6 6.20019 306.8 5.40018 298.3 1.20018C304.1 8.50018 309 12.3002 317.6 15.5002C323.4 17.7002 327.3 18.5002 333.5 18.5002L333.7 75.9002C329.3 75.5002 326.6 75.7002 322.2 76.7002C316.8 77.9002 313.5 79.3002 309.1 82.7002C304.7 85.7002 299 91.6002 299 99.0002C299.2 104.4 301.6 109.3 307.5 113.3C312.3 116.5 317.8 115.3 322.8 112.1C313.9 113.9 305.3 108.7 306.9 99.6002C308.5 89.7002 321.2 89.3002 330.7 90.3002C345.4 91.9002 352.3 103.8 352.9 104.2L353.9 105L355.3 104.4L375 83.0002ZM356.6 54.2002C353.4 52.4002 350.6 51.6002 347.7 51.6002C344.5 51.6002 342.3 52.2002 339.6 53.4002V41.3002C342.4 42.7002 344.6 43.1002 347.7 43.1002C351.3 43.1002 353.7 42.5002 356.6 40.9002C356.6 41.0002 356.6 54.2002 356.6 54.2002ZM356.6 84.4002C353.4 82.0002 351.2 80.6002 347.7 79.0002C344.7 77.8002 342.5 77.0002 339.6 76.2002V59.3002C342.2 57.3002 344.4 56.3002 347.7 56.3002C350.9 56.3002 354.1 57.3002 356.6 59.5002V84.4002ZM268.7 53.7002L268.3 54.7002L261 61.8002L260 62.2002L259.2 61.2002V44.7002L259.6 43.9002L260.4 44.3002L268.1 52.2002L268.7 53.7002ZM281.2 45.5002C281.2 44.7002 280.6 43.9002 280 43.3002L266.1 29.2002L264.9 28.6002L263.3 28.8002L237.7 44.1002C239.3 44.3002 240.7 45.3002 241.3 45.9002C241.9 46.3002 242.9 47.5002 242.9 48.5002L243.1 83.4002C243.1 84.0002 242.7 84.6002 242.5 85.0002L241.9 85.6002L232.4 94.3002L231.8 95.3002L232 95.9002L233.8 97.7002L234.6 98.1002L235.6 97.7002L244.7 89.4002L245.9 89.0002L247.1 89.4002L255.2 97.1002L256.4 97.9002C257 97.9002 257.6 97.5002 258 96.9002L274.7 80.2002L275.3 79.0002L274.9 78.0002L273.9 77.0002L273.1 76.4002L272.1 76.8002L264 85.3002L263 85.9002L262.4 85.5002L261.8 84.7002L261 83.7002C260.4 82.9002 259.4 82.1002 259.4 81.1002V72.4002C259.4 71.4002 259 70.6002 259.4 69.8002C259.6 69.2002 260.2 68.8002 260.6 68.2002L280.2 47.6002C280.6 47.1002 281.2 46.5002 281.2 45.5002ZM228.8 95.3002L229 45.3002C229 44.7002 228.8 44.1002 228.8 43.5002L228 42.3002L217.3 30.0002C216.9 29.6002 216.5 29.2002 215.9 29.2002L214.7 29.8002L203.2 41.3002L202.4 41.7002L201.8 41.1002V1.40018L190.9 6.60019L189.9 7.00018L188.7 6.40018L184.9 1.60019L184.7 83.6002C184.7 84.2002 184.3 84.8002 184.1 85.2002L183.5 85.8002L174 94.5002L173.4 95.5002L173.6 96.1002L175.4 97.9002L176.2 98.3002L177.2 97.9002L186.3 89.6002L187.5 89.2002L188.7 89.6002L196.8 97.3002L198 98.1002C198.6 98.1002 199.2 97.5002 199.6 97.1002L209.9 87.2002L210.5 86.2002L210.1 85.2002L209.1 84.2002L208.1 83.6002L207.1 84.2002L205.3 85.8002L204.3 86.4002L203.7 86.0002L203.1 85.2002L202.3 84.2002L201.7 83.2002L201.9 49.9002L202.1 48.9002L202.3 48.3002L205.5 44.5002L206.1 44.1002L206.7 44.5002L211.7 50.3002L212.1 50.9002L212.3 51.5002L212.5 99.1002C212.5 100.3 211.3 105.6 208.7 108.6C205.5 112.2 202.7 114.2 198 115C200.6 116 202.4 116.6 205.1 116.8C210.3 117.2 214.2 116.6 218.6 113.4C222 110.8 222.6 110.2 224.8 106.9C227.2 103.1 228.8 100.1 228.8 95.3002ZM176.4 83.4002C174.6 86.2002 172.2 88.8002 168.9 90.9002C164.1 94.1002 160.8 96.1002 154 97.1002C146.3 98.3002 140.9 97.1002 134 93.7002C126.3 89.9002 120.5 83.0002 118.1 77.4002C116.1 72.6002 114.7 65.9002 114.7 61.1002C114.7 53.0002 116.1 47.4002 120.1 40.3002C124.5 32.2002 129.6 26.8002 137.2 23.0002C140.8 21.2002 143.2 20.6002 147.1 20.0002C141.9 24.2002 139.2 27.5002 136 33.3002C132.8 39.3002 130.8 43.4002 130.6 50.4002C130.2 57.5002 131 62.3002 134.6 68.3002C139 75.0002 142.5 81.2002 152.7 84.8002C157.3 86.4002 160.8 86.4002 165.6 85.4002V21.9002C165.6 21.3002 165.6 20.7002 165.2 20.5002C164.8 20.3002 161.2 20.3002 159 20.1002C143.1 18.1002 139 13.0002 127.6 17.5002C122.8 19.3002 121.1 23.5002 119.1 28.4002C116.5 23.0002 116.9 16.9002 119.1 13.1002C120.9 10.1002 123.1 7.10018 127.2 4.80018C133.6 1.20018 138.9 2.00018 146.1 3.20018C152.1 4.20018 163.8 9.90019 168.1 10.1002C170.5 10.3002 173.3 10.1002 173.5 7.50018C173.7 5.30018 169.7 4.90019 169.9 3.10019C170.1 1.10019 173.5 1.50018 175.1 2.50018C180.9 6.30018 176.1 14.0002 175.7 14.6002C174.5 15.8002 173.7 17.2002 171.9 18.0002H171.7V81.5002L172.1 81.7002C172.3 81.9002 173.9 80.5002 175.1 79.5002C176.1 78.5002 177.1 77.7002 178.1 76.7002C178 79.7002 177.6 81.2002 176.4 83.4002ZM152.2 74.9002C149.2 76.7002 143.3 77.5002 143.1 77.5002C142.7 77.3002 147.1 73.1002 147.1 70.0002V43.6002L141.5 48.2002L140.9 48.4002L140.1 48.2002L138.1 45.6002L137.9 44.8002L138.3 44.0002L159.5 25.1002L160.5 24.7002L160.9 25.9002V58.6002C160.9 65.8002 158.1 71.3002 152.2 74.9002Z" fill="black"/>
</svg>
