<svg width="200" height="168" viewBox="0 0 200 168" fill="none" xmlns="http://www.w3.org/2000/svg">
<g clip-path="url(#clip0_1034_3760)">
<mask id="mask0_1034_3760" style="mask-type:luminance" maskUnits="userSpaceOnUse" x="-23" y="-41" width="250" height="250">
<path d="M-22.9688 -40.8967H226.02V208.092H-22.9688V-40.8967Z" fill="white"/>
</mask>
<g mask="url(#mask0_1034_3760)">
<path d="M137.043 167.264C145.547 167.264 153.799 165.598 161.569 162.31C169.072 159.137 175.81 154.595 181.595 148.81C187.38 143.024 191.923 136.287 195.097 128.783C198.384 121.013 200.049 112.761 200.049 104.257C200.049 95.3899 198.243 86.8142 194.679 78.7679" fill="white"/>
<path d="M194.679 78.7679C192.968 74.9061 190.855 71.1987 188.399 67.7495C186.296 64.7962 183.921 62.0053 181.335 59.4492L181.92 47.3204C182.03 45.027 181.438 42.8018 180.206 40.8851C178.906 38.8616 177.106 37.3868 175.005 36.6222C174.999 36.6197 70.0327 1.01456 70.0327 1.01456C68.715 0.582319 66.9111 -0.121075 64.1498 0.128909C64.1498 0.128909 54.1295 0.663237 53.8566 0.694361C52.1157 0.893552 50.7612 2.30707 50.638 4.05522C50.4042 7.35083 50.8471 10.5329 51.9556 13.596C51.9556 13.596 28.0273 5.25385 20.4877 3.0513C20.1707 2.95893 19.2057 2.68203 17.5768 2.80453C17.5768 2.80453 7.23803 3.3421 4.11148 3.51366C3.60653 3.54129 3.29604 3.55848 3.25844 3.56271C1.48166 3.74323 0.107488 5.16895 -0.00679794 6.9522C-0.334467 12.0191 0.784737 16.8497 3.3182 21.3114C5.48564 25.1281 8.71104 28.6844 12.9062 31.8844C12.956 35.9815 13.9886 39.8361 15.9763 43.3473C17.9478 46.8309 20.8684 49.9739 24.6597 52.6944C24.838 56.7098 25.949 60.4245 27.9636 63.7447C29.5429 66.3467 31.6907 68.7185 34.3499 70.7961C34.7846 74.991 36.425 79.0015 39.2306 82.7189C41.5957 85.8544 44.2148 88.0161 46.0596 89.3109L62.51 136.838C62.8867 137.926 63.7599 138.916 64.7902 139.424L82.9375 148.363C83.435 148.608 83.9915 148.738 84.5462 148.738C84.8191 148.738 85.092 148.707 85.3582 148.647L89.6612 147.663L89.0387 152.191C88.8256 153.748 89.6286 155.26 91.0386 155.954L110.319 165.445C110.817 165.69 111.373 165.819 111.927 165.819C112.273 165.819 112.617 165.77 112.948 165.673L117.777 164.263C123.983 166.254 130.463 167.264 137.042 167.264" fill="white"/>
<path d="M137.042 163.621C130.325 163.621 123.867 162.505 117.845 160.448L111.928 162.177L92.6483 152.686L93.9899 142.953L84.5472 145.096L66.4007 136.156C66.2209 136.067 66.0185 135.838 65.9523 135.646L49.1007 86.9593C45.3196 84.6021 38.0561 78.1874 37.8796 68.873C32.8234 65.356 27.9942 59.7125 28.29 50.7593C20.046 45.4464 16.0478 38.418 16.5975 30.0711C7.83639 23.9234 3.40987 16.5209 3.58715 8.17958C3.59064 8.08397 3.59387 7.95971 3.5996 7.80385C3.60209 7.73363 3.60533 7.66318 3.60857 7.59221C3.63048 7.29567 3.72708 7.19757 4.06197 7.15847L17.2862 6.3301C17.5198 6.33334 17.9692 6.2925 18.283 6.26785L18.5885 6.24817C18.7707 6.24817 18.9562 6.25166 19.2413 6.34802C19.3531 6.38636 60.3797 20.3058 60.3797 20.3058C56.0186 15.6074 53.9264 10.303 54.259 4.54584C54.3024 4.35362 54.4184 4.28092 54.7017 4.25005L65.6059 3.62259C65.7571 3.6201 65.963 3.60616 66.1687 3.59072L66.9726 3.54416C67.1051 3.54914 67.2528 3.56856 67.444 3.62907L173.756 40.0431C175.16 40.5536 176.316 41.5667 177.143 42.8535C177.962 44.1288 178.357 45.6123 178.282 47.145L177.619 60.9248C189.181 71.757 196.407 87.1625 196.407 104.257C196.407 137.043 169.828 163.621 137.042 163.621Z" fill="white"/>
<path d="M186.582 84.7388C185.489 84.2804 184.454 83.4015 183.771 82.6874C183.97 82.4653 184.161 82.2389 184.345 82.0109C185.067 82.7479 186.215 83.6089 187.341 83.6816C187.239 85.7469 187.457 87.8457 187.669 89.2191C187.445 89.4984 187.214 89.7753 186.975 90.0482C186.767 88.7575 186.528 86.7215 186.582 84.7388ZM182.994 129.365C183.32 130.676 182.836 132.416 182.541 133.3C182.255 133.264 181.968 133.236 181.68 133.214C181.955 132.266 182.348 130.507 181.828 129.331C183.546 128.01 184.541 126.51 184.943 125.798C185.267 125.814 185.587 125.835 185.901 125.86C185.582 126.456 184.673 127.933 182.994 129.365ZM179.796 133.16C179.49 133.165 179.183 133.177 178.875 133.196C179.031 132.241 179.145 130.66 178.404 129.667C180.043 128.178 180.892 126.619 181.236 125.855C181.579 125.829 181.919 125.81 182.256 125.796C181.968 126.465 181.199 127.974 179.656 129.54C180.198 130.688 179.989 132.249 179.796 133.16ZM176.773 133.434C176.45 133.486 176.125 133.546 175.799 133.613C175.834 132.672 175.72 131.195 174.754 130.34C176.259 128.75 176.977 127.188 177.278 126.344C177.644 126.28 178.006 126.222 178.365 126.169C178.099 126.939 177.452 128.43 176.092 130.052C176.839 131.081 176.854 132.528 176.773 133.434ZM173.516 134.184C173.183 134.282 172.849 134.387 172.512 134.499C172.432 133.585 172.123 132.193 170.987 131.44C172.46 129.725 173.034 128.072 173.243 127.226C173.62 127.127 173.994 127.033 174.366 126.945C174.188 127.706 173.683 129.296 172.372 131.054C173.268 131.971 173.48 133.3 173.516 134.184ZM170.121 135.39C169.786 135.527 169.447 135.673 169.106 135.823C168.922 134.94 168.435 133.567 167.089 132.892C168.498 131.083 168.93 129.368 169.056 128.509C169.443 128.373 169.829 128.243 170.212 128.119C170.112 128.886 169.752 130.544 168.521 132.409C169.595 133.251 169.979 134.532 170.121 135.39ZM167.657 88.2918C167.859 89.2958 168.574 91.9836 170.997 93.3667C169.238 95.3275 168.72 97.74 168.581 98.7695C168.115 98.7979 167.642 98.8168 167.163 98.8251C167.29 97.861 167.718 95.5782 169.273 93.5712C167.131 91.7909 166.588 89.1324 166.399 88.2281C166.82 88.2558 167.239 88.2772 167.657 88.2918ZM165.305 137.691C165.005 136.835 164.325 135.546 162.812 134.972C164.217 132.981 164.463 131.13 164.491 130.305C164.888 130.132 165.283 129.963 165.677 129.799C165.669 130.498 165.504 132.307 164.292 134.391C165.509 135.138 166.068 136.325 166.327 137.154C165.989 137.327 165.649 137.506 165.305 137.691ZM161.177 98.5537C161.355 97.6877 161.901 95.392 163.914 93.4437C161.846 91.3049 161.582 88.4519 161.497 87.634C161.945 87.711 162.392 87.7819 162.838 87.8474C162.917 88.6048 163.216 91.5982 165.756 93.4698C163.505 95.3136 162.842 97.8037 162.664 98.6869C162.167 98.6503 161.671 98.6052 161.177 98.5537ZM161.421 139.926C160.98 139.108 160.118 137.998 158.527 137.546C159.971 135.285 159.952 133.232 159.884 132.529C160.289 132.315 160.694 132.107 161.096 131.904C161.187 132.822 161.19 134.635 160.053 136.868C161.344 137.494 162.065 138.52 162.453 139.306C162.111 139.508 161.768 139.714 161.421 139.926ZM157.614 142.254C157.077 141.468 156.048 140.37 154.288 139.973C155.534 137.866 155.423 135.906 155.298 135.105C155.695 134.881 156.093 134.655 156.492 134.424C156.615 135.048 156.842 136.997 155.822 139.261C157.29 139.836 158.169 140.861 158.651 141.62C158.303 141.834 157.957 142.045 157.614 142.254ZM153.883 144.5C153.251 143.747 152.044 142.666 150.113 142.332C151.212 140.307 150.972 138.386 150.777 137.548C151.179 137.341 151.582 137.131 151.985 136.918C152.175 137.673 152.464 139.508 151.655 141.585C153.321 142.106 154.372 143.135 154.946 143.868C154.589 144.081 154.235 144.292 153.883 144.5ZM149.711 146.883C149.105 146.132 147.846 144.914 145.804 144.501C146.865 142.531 146.526 140.547 146.308 139.737C146.698 139.557 147.089 139.373 147.48 139.187C147.688 139.928 148.056 141.811 147.299 143.829C149.077 144.423 150.186 145.575 150.746 146.31C150.4 146.504 150.055 146.695 149.711 146.883ZM145.683 148.953C145.136 148.24 143.812 146.829 141.612 146.318C142.614 144.443 142.2 142.423 141.965 141.618C142.343 141.465 142.722 141.309 143.102 141.15C143.33 141.909 143.747 143.807 143.061 145.722C145.006 146.415 146.191 147.753 146.705 148.456C146.363 148.626 146.023 148.791 145.683 148.953ZM141.59 150.72C141.123 150.084 139.773 148.533 137.442 147.877C138.459 146.064 137.866 143.906 137.631 143.22C138.002 143.096 138.373 142.967 138.746 142.836C138.971 143.485 139.547 145.51 138.861 147.399C140.949 148.216 142.168 149.688 142.612 150.316C142.271 150.454 141.93 150.59 141.59 150.72ZM137.524 152.047C137.168 151.536 135.795 149.837 133.314 149.012C134.209 147.507 133.718 145.489 133.37 144.495C133.734 144.4 134.098 144.302 134.464 144.199C134.755 144.99 135.329 146.957 134.703 148.652C136.982 149.626 138.235 151.271 138.558 151.753C138.214 151.855 137.869 151.954 137.524 152.047ZM133.483 152.887C133.12 152.377 131.747 150.734 129.309 149.797C130.202 148.391 129.552 146.245 129.213 145.412C129.571 145.348 129.931 145.28 130.292 145.208C130.588 145.974 131.26 147.98 130.667 149.554C132.99 150.631 134.257 152.292 134.542 152.715C134.19 152.778 133.837 152.836 133.483 152.887ZM129.633 153.224C129.338 152.795 127.953 151.113 125.454 150.02C126.308 148.779 125.575 146.66 125.289 145.943C125.641 145.911 125.994 145.874 126.349 145.833C126.641 146.561 127.315 148.511 126.78 149.894C129.1 151.055 130.363 152.645 130.719 153.174C130.36 153.196 129.998 153.213 129.633 153.224ZM125.15 146.757C125.149 146.757 125.149 146.756 125.149 146.755H125.151C125.15 146.756 125.15 146.756 125.15 146.757ZM132.159 89.536C131.678 89.3252 131.199 89.1145 130.719 88.9036C131.273 87.9617 132.641 86.0843 135.046 84.9554C133.807 82.4195 133.997 79.9251 134.221 78.6239C134.686 78.8076 135.151 78.9921 135.618 79.1776C135.425 80.5306 135.33 83.0967 136.985 85.6008C134.442 86.4683 132.793 88.5393 132.159 89.536ZM126.517 87.0524C126.066 86.8539 125.615 86.658 125.164 86.461C125.758 85.5395 127.2 83.7618 129.579 82.6279C128.461 80.2538 128.737 77.8739 128.992 76.5969C129.445 76.7669 129.896 76.9392 130.349 77.1123C130.109 78.4742 129.982 80.8802 131.443 83.2234C128.838 84.1382 127.155 86.108 126.517 87.0524ZM120.919 84.6546C120.492 84.4781 120.064 84.3033 119.638 84.131C120.294 83.22 121.789 81.5664 124.105 80.4465C123.132 78.2708 123.474 76.0292 123.764 74.7212C124.204 74.8699 124.646 75.021 125.089 75.1754C124.781 76.6205 124.656 78.8388 125.895 80.9923C123.302 81.9252 121.604 83.7324 120.919 84.6546ZM115.465 82.5191C115.058 82.3704 114.65 82.2242 114.242 82.0811C114.917 81.2079 116.488 79.5748 118.843 78.4205C118.069 76.5545 118.396 74.5609 118.717 73.1573C119.15 73.2783 119.584 73.4026 120.018 73.5308C119.646 75.1263 119.609 77.051 120.559 78.9172C117.896 79.8957 116.157 81.6449 115.465 82.5191ZM110.197 80.7667C109.803 80.6506 109.409 80.5371 109.015 80.4275C109.733 79.5787 111.362 78.0046 113.71 76.8396C113.13 75.271 113.452 73.5047 113.813 71.9736C114.24 72.0595 114.67 72.1509 115.099 72.2465C114.63 74.0577 114.69 75.6998 115.351 77.2856C112.695 78.2815 110.939 79.9146 110.197 80.7667ZM105.424 79.5404C105.047 79.4595 104.668 79.382 104.289 79.3091C104.89 78.4882 106.278 76.9367 108.693 75.6313C108.432 73.8707 108.79 72.1166 109.057 71.2498C109.461 71.2907 109.866 71.3365 110.271 71.3888C110.017 72.3045 109.731 74.2285 110.215 75.953C110.212 75.9547 110.212 75.9547 110.208 75.9565C110.21 75.958 110.21 75.959 110.212 75.9612C107.582 77.1247 106.077 78.7038 105.424 79.5404ZM101.193 78.8076C100.834 78.7618 100.479 78.7227 100.129 78.6891C100.751 77.8216 102.28 76.2284 104.278 74.9827C103.999 73.6394 104.469 71.9614 104.814 71.0357C105.172 71.0374 105.536 71.0432 105.909 71.0529C105.608 71.9597 105.243 73.6665 105.685 75.1704C103.476 76.2602 101.849 77.9277 101.193 78.8076ZM97.2266 78.533C96.9031 78.5298 96.5837 78.533 96.2682 78.5405C96.7953 77.6924 98.0238 76.1295 99.9527 74.7783C99.8048 73.4384 100.211 72.1126 100.578 71.2523C100.914 71.214 101.258 71.1804 101.611 71.1517C101.254 72.0227 100.873 73.4083 101.15 74.8223C99.0297 75.9906 97.7863 77.6466 97.2266 78.533ZM93.8149 78.6981C93.4815 78.7349 93.1516 78.7765 92.8257 78.8241C93.355 78.0168 94.4864 76.5209 96.3319 75.0855C96.1375 73.9957 96.7463 72.7032 97.2666 71.8365C97.5657 71.7628 97.8712 71.6935 98.1842 71.6298C97.6857 72.5406 97.1317 73.9083 97.5649 74.9426C95.6009 76.248 94.3794 77.8411 93.8149 78.6981ZM140.495 87.1261C139.102 84.5837 139.238 81.9718 139.415 80.685C139.89 80.873 140.366 81.06 140.841 81.2462C140.685 82.586 140.627 85.2487 142.479 87.7174C139.688 88.7771 138.231 91.0205 137.742 91.9231C137.247 91.7189 136.753 91.5123 136.26 91.3039C136.721 90.3816 137.932 88.4193 140.495 87.1261ZM145.037 82.8549C145.524 83.0362 146.011 83.216 146.498 83.3933C146.371 84.6743 146.301 87.5133 148.405 90.0002C145.532 91.1871 144.278 93.3996 143.851 94.3072C143.334 94.1199 142.818 93.929 142.303 93.7345C142.719 92.7786 143.777 90.8587 146.375 89.4616C144.796 86.8768 144.902 84.0884 145.037 82.8549ZM150.647 84.8327C151.147 84.997 151.647 85.1571 152.146 85.3139C152.071 86.6538 152.142 89.4479 154.353 91.7712C151.278 93.1347 150.233 95.4575 149.923 96.2956C149.383 96.1397 148.842 95.9771 148.304 95.8103C148.628 94.8831 149.497 92.8668 152.277 91.2859C150.641 88.8727 150.574 86.1513 150.647 84.8327ZM156.157 86.4675C156.631 86.5908 157.105 86.7103 157.577 86.8228C157.588 87.9054 157.741 90.7877 160.115 92.9158C157.4 94.5596 156.569 97.0376 156.342 97.8421C155.824 97.7432 155.306 97.6379 154.789 97.5268C155.029 96.6698 155.717 94.4623 158.156 92.6601C156.303 90.3465 156.167 87.5459 156.157 86.4675ZM172.262 88.1669C172.527 88.9143 173.538 91.3529 175.915 92.2998C174.577 94.3692 174.217 96.7418 174.142 97.8854C173.698 98.0014 173.248 98.1085 172.791 98.2041C172.844 97.182 173.125 94.844 174.308 92.7336C172.202 91.3913 171.367 89.1285 171.085 88.2557C171.478 88.2331 171.871 88.2035 172.262 88.1669ZM176.381 87.3987C176.785 88.2958 177.812 90.0761 179.736 90.7548C178.668 92.9992 178.593 95.1829 178.632 96.2679C178.26 96.4402 177.883 96.6061 177.497 96.7647C177.467 95.7426 177.52 93.5253 178.451 91.2999C176.749 90.3881 175.764 88.5909 175.364 87.6773C175.711 87.5932 176.05 87.5001 176.381 87.3987ZM179.539 86.0664C180.086 86.9169 181.237 88.2779 182.936 88.6193C182.228 90.8833 182.301 92.9387 182.43 94.093C182.102 94.3201 181.766 94.5407 181.423 94.7548C181.315 93.6324 181.249 91.5369 181.839 89.3548C180.298 88.7975 179.193 87.3947 178.645 86.5238C178.951 86.3784 179.25 86.2265 179.539 86.0664ZM182.241 84.1873C182.893 85.0077 184.045 86.0975 185.414 86.3293C185.035 88.4298 185.159 90.4747 185.321 91.759C185.048 92.0165 184.766 92.2687 184.477 92.5164C184.325 91.2892 184.184 89.2427 184.486 87.201C183.222 86.6759 182.163 85.5836 181.526 84.7674C181.772 84.5787 182.011 84.385 182.241 84.1873ZM136.708 48.2684C136.952 48.556 137.18 48.8615 137.386 49.1842C138.279 50.5723 138.707 52.1883 138.627 53.8557L137.761 72.0904L126.473 74.4638L100.456 64.3618L94.0452 74.0823C93.4775 74.7718 92.9833 75.521 92.574 76.3133L84.749 88.1773C84.5954 88.4111 84.5578 88.7027 84.6477 88.9666C85.8191 92.3954 94.2257 115.079 95.1482 117.777L97.787 116.916C98.1179 116.807 98.3956 116.515 98.4471 116.219L99.7446 108.513L92.2814 101.426L95.3385 88.2966L108.522 85.3964L134.336 95.9951L124.398 148.054C124.396 148.056 124.395 148.06 124.393 148.063L124.009 150.083L124.004 150.08L123.919 150.528C125.527 151.648 126.451 152.775 126.742 153.181C126.404 153.163 126.062 153.139 125.719 153.109C125.456 152.758 124.817 152.019 123.79 151.202L123.743 151.449L123.748 151.453L122.557 157.701C127.065 158.88 131.795 159.509 136.673 159.509C167.391 159.509 192.293 134.607 192.293 103.888C192.293 73.182 167.41 48.2874 136.708 48.2684Z" fill="white"/>
<path d="M51.2701 75.2329C49.4361 74.4779 47.923 73.8547 47.2833 73.6105C45.8748 73.0711 43.6421 72.2159 41.1953 70.9005C42.2615 77.1102 46.9786 81.5676 50.3583 83.9017C50.6631 84.1125 51.0814 84.0373 51.298 83.7368L56.0076 77.1725C54.4096 76.5236 52.7414 75.8382 51.2701 75.2329Z" fill="white"/>
<path d="M123.682 50.6676C124.971 51.1364 126.153 52.0206 126.911 52.9976C127.087 53.224 127.391 53.398 127.748 53.3701C128.847 53.2852 130.411 53.1398 131.706 52.9282C133.063 52.7075 134.152 52.4093 134.805 52.2068C135.192 52.0866 135.398 51.6635 135.234 51.2933C135.146 51.1103 135.046 50.9315 134.935 50.7592C134.522 50.1153 133.8 49.2648 132.713 48.8654L100.008 37.2284L90.1504 38.4629L123.682 50.6676Z" fill="white"/>
<path d="M92.3782 118.681L81.7444 89.4624L74.2832 91.5937L84.9733 121.099L92.3782 118.681Z" fill="white"/>
<path d="M131.177 97.1051L109.007 88.013L100.326 89.923L122.898 99.168L131.177 97.1051Z" fill="white"/>
<path d="M163.745 43.8051C165.861 44.5748 166.77 45.2005 167.442 46.0911C167.68 46.4073 168.032 46.6172 168.426 46.5893C169.317 46.5256 170.887 46.3959 172.15 46.1899C173.276 46.0059 174.178 45.7594 174.721 45.5919C175.047 45.4905 175.216 45.1278 175.077 44.8158C174.714 44.0003 174.022 43.2178 173.138 42.8034L142.028 31.969L133.848 32.9933L163.745 43.8051Z" fill="white"/>
<path d="M127.511 33.5439C115.077 29.0553 94.8784 21.567 78.2637 15.1351C78.7743 21.0491 80.8713 25.3185 83.9147 28.4837L121.579 41.8115L127.498 33.5603L127.511 33.5439Z" fill="white"/>
<path d="M137.527 30.4028L66.7997 5.77032L61.0352 6.1077C68.2172 8.76118 123.895 29.3333 129.396 31.3848L137.527 30.4028Z" fill="white"/>
<path d="M57.5834 73.9069C57.8849 74.0899 58.2761 74.0097 58.482 73.7232L64.0081 66.0214L47.1426 59.244C47.6565 66.5077 53.7764 71.6005 57.5834 73.9069Z" fill="white"/>
<path d="M49.3126 71.0508C46.5496 67.9267 44.3323 63.8321 44.294 58.8461C44.2908 58.3738 44.0057 57.95 43.5685 57.7725C40.732 56.6199 38.5269 55.7293 37.4003 55.2973C35.2388 54.4679 33.2601 53.5571 31.4258 52.5865C32.0027 63.1539 41.2623 67.9586 48.4008 70.689C48.6142 70.7697 48.9294 70.8964 49.3126 71.0508Z" fill="white"/>
<path d="M67.5532 22.7729C71.5579 24.1553 75.5031 25.5252 79.2972 26.8496C77.2261 23.6725 75.9386 19.8466 75.7589 14.8441C75.7434 14.4129 75.4713 14.0329 75.0694 13.8753C68.0557 11.1402 61.8033 8.6361 57.1973 6.68104C57.3599 13.3826 61.6923 18.6604 67.5532 22.7729Z" fill="white"/>
<path d="M66.1947 62.9725L72.7508 53.8339L38.7168 40.6039C39.4299 50.3406 46.049 55.0505 55.1622 59.1018C58.4041 60.4122 61.8884 61.8125 65.3974 63.2061C65.6857 63.3206 66.0142 63.2243 66.1947 62.9725Z" fill="white"/>
<path d="M40.8597 53.3018C37.966 50.0094 35.9972 45.806 35.8483 40.2286C35.8354 39.7613 35.5438 39.3462 35.1073 39.1764C33.8084 38.6699 32.7439 38.2564 31.999 37.972C27.3257 36.1845 23.2221 34.2076 19.6758 32.0638C20.0017 42.9157 29.9124 49.0732 38.5215 52.376C39.0722 52.5869 39.868 52.9031 40.8597 53.3018Z" fill="white"/>
<path d="M74.9407 50.7833L83.3448 39.0664L29.7461 19.0326C30.8138 31.3525 38.994 36.8116 47.0461 40.4911C53.4217 42.9895 72.6687 50.4492 74.1514 51.0194C74.4375 51.1297 74.7617 51.0326 74.9407 50.7833Z" fill="white"/>
<path d="M33.6132 35.2402C29.7292 31.1342 27.2923 26.0035 27.0277 18.6713C27.0112 18.2326 26.7334 17.8469 26.325 17.6875C18.937 14.8135 12.1367 12.0938 6.69727 9.79013C7.49951 22.2129 20.371 30.2323 33.4252 35.1618L33.6132 35.2402Z" fill="white"/>
<path d="M95.1781 35.5176L19.2344 8.62282L11.2598 9.09017L85.4105 36.6973L95.1781 35.5176Z" fill="white"/>
<path d="M166.303 52.5938L166.371 50.8192C166.44 49.0228 165.316 47.3416 163.639 46.7311L130.632 34.7176L124.738 42.9347L131.075 45.1896C133.038 44.9936 135.029 44.8923 137.043 44.8923C147.683 44.8923 157.668 47.6919 166.303 52.5938Z" fill="#E31937"/>
<path d="M95.498 100.462L102.875 107.467L101.32 116.709C101.086 118.074 100.057 119.239 98.6923 119.685L83.1945 124.744L70.337 89.2568L91.5742 57.7871L125.167 70.8299L125.66 57.8556C125.735 55.8998 124.459 54.0503 122.687 53.4057C120.915 52.7603 86.7548 40.3276 86.7548 40.3276L52.916 87.5069L68.8428 133.49L85.2793 141.587L98.1672 133.934L95.8207 151.001L109.783 157.874L120.571 101.363L97.4897 91.9095L95.498 100.462Z" fill="#E31937"/>
<path d="M136.673 159.509C131.796 159.509 127.065 158.879 122.557 157.7L123.749 151.452L123.744 151.448L123.79 151.201C123.789 151.201 123.789 151.2 123.789 151.199L123.917 150.525C123.918 150.526 123.919 150.527 123.919 150.527L124.005 150.08L124.009 150.083L124.394 148.063C124.396 148.06 124.397 148.056 124.398 148.054L134.337 95.9948L108.522 85.3964L95.3385 88.2959L92.2814 101.426L99.7443 108.512L98.4471 116.219C98.3955 116.515 98.1187 116.807 97.7878 116.915L95.1482 117.777C94.2257 115.079 85.8191 92.3945 84.6476 88.9666C84.5578 88.7017 84.5954 88.4109 84.749 88.1773L92.5739 76.3125C92.983 75.5208 93.4775 74.7718 94.046 74.0814L100.456 64.3618L126.474 74.4628L137.762 72.0904L138.628 53.8555C138.708 52.1873 138.279 50.5724 137.387 49.1835C137.179 48.8616 136.952 48.556 136.708 48.2675C167.411 48.2871 192.293 73.1818 192.293 103.888C192.293 134.606 167.391 159.509 136.673 159.509ZM100.327 89.9232L109.008 88.0123L131.177 97.1051L122.899 99.1679L100.327 89.9232ZM81.7442 89.4616L92.3777 118.68L84.9728 121.098L74.282 91.594L81.7442 89.4616ZM109.783 157.874L95.8205 151.001L98.166 133.933L85.2783 141.587L68.8426 133.49L52.9158 87.5066L86.7538 40.3275C86.7538 40.3275 120.914 52.76 122.686 53.4056C124.458 54.051 125.735 55.8997 125.66 57.8555L125.167 70.8298L91.573 57.7868L70.336 89.2565L83.1943 124.744L98.6921 119.685C100.056 119.239 101.086 118.074 101.319 116.708L102.875 107.467L95.4978 100.462L97.4895 91.9092L120.57 101.363L109.783 157.874ZM50.3577 83.9022C46.9779 81.5679 42.2608 77.1105 41.1947 70.9008C43.6415 72.2162 45.8742 73.0715 47.2827 73.61C47.9231 73.855 49.4362 74.4785 51.2695 75.2332C52.7418 75.8377 54.41 76.5242 56.007 77.172L51.2974 83.7364C51.0808 84.0377 50.6632 84.1129 50.3577 83.9022ZM31.4261 52.5862C33.2602 53.5575 35.2389 54.4675 37.4006 55.2967C38.5273 55.7289 40.7313 56.6195 43.5688 57.7721C44.0058 57.9494 44.2908 58.3744 44.2943 58.8457C44.3327 63.8317 46.5499 67.9264 49.3129 71.0504C48.9298 70.896 48.6135 70.7693 48.4011 70.6884C41.2624 67.9582 32.002 63.1535 31.4261 52.5862ZM19.6766 32.0638C23.2229 34.2076 27.3265 36.1846 31.9998 37.972C32.7455 38.2564 33.8092 38.6697 35.1091 39.1764C35.5444 39.3462 35.8362 39.7613 35.8491 40.2286C35.9978 45.806 37.9675 50.0094 40.8605 53.3018C39.8688 52.9031 39.073 52.5877 38.5223 52.376C29.913 49.0732 20.0025 42.9157 19.6766 32.0638ZM6.69732 9.79003C12.1367 12.0937 18.9371 14.8134 26.3241 17.6874C26.7334 17.8468 27.0113 18.2325 27.0275 18.6705C27.2924 26.0027 29.7285 31.1333 33.6132 35.2401L33.4252 35.161C20.371 30.2312 7.49956 22.2121 6.69732 9.79003ZM47.0459 40.4908C38.9936 36.8113 30.8134 31.3522 29.7457 19.0322L83.3444 39.0661L74.9403 50.783C74.7616 51.0322 74.4371 51.1293 74.1513 51.019C72.6683 50.4489 53.4215 42.9892 47.0459 40.4908ZM64.0077 66.0211L58.4817 73.7236C58.2758 74.0104 57.8846 74.0903 57.5831 73.9073C53.7761 71.6009 47.6562 66.5081 47.1423 59.2436L64.0077 66.0211ZM55.1624 59.1022C46.0492 55.0509 39.4301 50.341 38.7167 40.6043L72.751 53.8344L66.1946 62.973C66.0141 63.2247 65.6857 63.3211 65.3974 63.2068C61.8876 61.8129 58.404 60.4126 55.1624 59.1022ZM19.2346 8.62327L95.1784 35.518L85.4115 36.6977L11.26 9.09061L19.2346 8.62327ZM57.1982 6.68066C61.8044 8.63647 68.0565 11.1403 75.0703 13.8757C75.4722 14.0325 75.7443 14.4122 75.7598 14.8445C75.9395 19.8459 77.227 23.6719 79.2981 26.85C75.504 25.5256 71.5591 24.1547 67.5541 22.7723C61.6932 18.6605 57.3607 13.3829 57.1982 6.68066ZM66.8001 5.76962L137.528 30.402L129.396 31.384C123.896 29.3326 68.2176 8.76046 61.0356 6.10699L66.8001 5.76962ZM131.074 45.1892L124.738 42.9351L130.631 34.718L163.638 46.7317C165.315 47.342 166.439 49.0232 166.371 50.8189L166.303 52.5941C157.667 47.6923 147.682 44.8927 137.042 44.8927C135.028 44.8927 133.037 44.994 131.074 45.1892ZM83.9156 28.4831C80.8725 25.3179 78.7753 21.0493 78.2646 15.1353C94.8793 21.5664 115.078 29.0558 127.512 33.5433L127.499 33.5597L121.58 41.8109L83.9156 28.4831ZM132.713 48.8655C133.8 49.2642 134.522 50.1147 134.935 50.7586C135.046 50.9316 135.146 51.1097 135.234 51.2937C135.398 51.6629 135.192 52.087 134.805 52.207C134.152 52.4096 133.064 52.7069 131.707 52.9283C130.411 53.1392 128.847 53.2846 127.749 53.3702C127.391 53.3981 127.087 53.2241 126.911 52.997C126.154 52.02 124.972 51.1368 123.682 50.667L90.1508 38.4623L100.008 37.2286L132.713 48.8655ZM173.138 42.8037C174.022 43.218 174.714 44.0006 175.076 44.8157C175.214 45.128 175.045 45.4908 174.719 45.5921C174.178 45.7594 173.275 46.0062 172.149 46.1899C170.886 46.3958 169.317 46.5258 168.425 46.5895C168.032 46.6172 167.68 46.4073 167.442 46.0911C166.769 45.2007 165.86 44.575 163.745 43.8053L133.847 32.9935L142.027 31.9689L173.138 42.8037ZM177.618 60.9248L178.282 47.145C178.356 45.6125 177.962 44.1288 177.142 42.8535C176.316 41.5667 175.16 40.5546 173.756 40.0431L67.443 3.62905C67.2528 3.56954 67.1039 3.54912 66.9725 3.54415L66.1677 3.59071C65.9618 3.6064 65.7569 3.62108 65.6048 3.62258L54.7016 4.25003C54.4182 4.2819 54.3022 4.35386 54.2588 4.54583C53.9262 10.3037 56.0185 15.6076 60.3787 20.3061C60.3787 20.3061 19.3529 6.38636 19.2411 6.34802C18.956 6.25166 18.7705 6.24841 18.5883 6.24841L18.2828 6.26808C17.969 6.29248 17.5196 6.33332 17.2853 6.33008L4.06102 7.15922C3.72688 7.19756 3.63027 7.29666 3.60836 7.59221C3.60513 7.66342 3.60089 7.73438 3.59865 7.80459C3.59367 7.95996 3.59045 8.0842 3.58721 8.17956C3.40893 16.5209 7.83545 23.9236 16.5966 30.0711C16.0476 38.4182 20.0458 45.4464 28.2891 50.7593C27.9933 59.7125 32.8232 65.3561 37.8794 68.874C38.0559 78.1874 45.3194 84.6024 49.1006 86.9593L65.9521 135.646C66.0183 135.838 66.22 136.067 66.3998 136.156L84.5463 145.096L93.9897 142.953L92.6474 152.686L111.927 162.178L117.845 160.448C123.867 162.505 130.324 163.621 137.042 163.621C169.828 163.621 196.407 137.043 196.407 104.257C196.407 87.1627 189.18 71.757 177.618 60.9248Z" fill="#002B5C"/>
<path d="M98.1854 71.6292C97.8724 71.6937 97.5669 71.7624 97.2671 71.8359C96.7467 72.7028 96.139 73.9951 96.3334 75.0849C94.4879 76.5213 93.3563 78.0163 92.8262 78.8242C93.1521 78.7769 93.482 78.7343 93.8162 78.6985C94.3799 77.8407 95.6021 76.2474 97.5662 74.9427C97.1332 73.9084 97.6872 72.541 98.1854 71.6292Z" fill="#E31937"/>
<path d="M101.611 71.1511C101.259 71.1797 100.914 71.2131 100.577 71.2517C100.211 72.1119 99.805 73.4378 99.9529 74.7768C98.0239 76.1289 96.7954 77.691 96.2676 78.5391C96.5838 78.5323 96.9032 78.5291 97.2267 78.5323C97.7854 77.6459 99.0299 75.9899 101.15 74.8217C100.873 73.4077 101.254 72.021 101.611 71.1511Z" fill="#E31937"/>
<path d="M105.909 71.0529C105.535 71.0432 105.17 71.0374 104.813 71.0357C104.468 71.9614 103.997 73.6394 104.277 74.9824C102.28 76.2283 100.75 77.8214 100.127 78.6891C100.478 78.7225 100.834 78.7618 101.192 78.8076C101.847 77.9277 103.476 76.2602 105.685 75.1704C105.242 73.6663 105.607 71.9597 105.909 71.0529Z" fill="#E31937"/>
<path d="M154.789 97.5263C155.305 97.6374 155.823 97.743 156.342 97.8408C156.568 97.0361 157.399 94.5592 160.115 92.9146C157.741 90.7872 157.588 87.9049 157.576 86.8223C157.104 86.7088 156.631 86.5905 156.157 86.4663C156.166 87.5446 156.303 90.346 158.156 92.6596C155.716 94.4618 155.028 96.6693 154.789 97.5263Z" fill="#E31937"/>
<path d="M169.274 93.5703C167.719 95.5784 167.291 97.8601 167.164 98.8242C167.643 98.817 168.116 98.7973 168.583 98.7687C168.721 97.7401 169.239 95.3277 170.998 93.3661C168.575 91.9838 167.86 89.2952 167.659 88.2918C167.24 88.2771 166.821 88.2552 166.4 88.2273C166.589 89.1318 167.132 91.79 169.274 93.5703Z" fill="#E31937"/>
<path d="M174.308 92.7336C173.126 94.8438 172.844 97.182 172.792 98.2041C173.249 98.1085 173.699 98.0014 174.142 97.8854C174.218 96.7415 174.578 94.3692 175.916 92.2998C173.538 91.3529 172.527 88.9143 172.262 88.1666C171.871 88.2035 171.479 88.2329 171.086 88.2558C171.368 89.1282 172.204 91.3913 174.308 92.7336Z" fill="#E31937"/>
<path d="M165.756 93.4695C163.216 91.5978 162.916 88.6045 162.839 87.8471C162.393 87.7818 161.946 87.7106 161.498 87.6339C161.582 88.4516 161.846 91.3045 163.915 93.4433C161.901 95.3919 161.354 97.6876 161.178 98.5536C161.671 98.6049 162.167 98.6499 162.664 98.6865C162.843 97.8036 163.505 95.3135 165.756 93.4695Z" fill="#E31937"/>
<path d="M178.451 91.2999C177.519 93.5253 177.466 95.7418 177.497 96.7637C177.881 96.6061 178.26 96.4402 178.631 96.2679C178.592 95.1821 178.667 92.9992 179.734 90.7551C177.812 90.0753 176.783 88.2958 176.38 87.399C176.05 87.5001 175.711 87.5932 175.363 87.6766C175.764 88.5909 176.748 90.3873 178.451 91.2999Z" fill="#E31937"/>
<path d="M181.838 89.3538C181.249 91.536 181.314 93.6315 181.422 94.7539C181.765 94.54 182.101 94.3194 182.43 94.0923C182.3 92.938 182.228 90.8824 182.935 88.6186C181.237 88.277 180.086 86.916 179.538 86.0655C179.249 86.2258 178.951 86.3777 178.645 86.5231C179.192 87.3948 180.297 88.7966 181.838 89.3538Z" fill="#E31937"/>
<path d="M184.485 87.2005C184.183 89.2422 184.325 91.2886 184.476 92.5156C184.765 92.2689 185.047 92.0157 185.319 91.7592C185.159 90.4742 185.034 88.4292 185.413 86.3288C184.043 86.0967 182.892 85.0069 182.239 84.1867C182.01 84.3844 181.771 84.5789 181.525 84.7669C182.162 85.5838 183.221 86.6751 184.485 87.2005Z" fill="#E31937"/>
<path d="M187.341 83.6812C186.214 83.6093 185.066 82.7475 184.344 82.0113C184.16 82.2393 183.969 82.4647 183.77 82.6878C184.453 83.4019 185.489 84.28 186.581 84.7384C186.527 86.7211 186.766 88.7571 186.975 90.0479C187.213 89.775 187.444 89.4988 187.668 89.2187C187.457 87.846 187.238 85.7466 187.341 83.6812Z" fill="#E31937"/>
<path d="M110.208 75.9559C110.211 75.9544 110.212 75.9544 110.214 75.9526C109.731 74.2279 110.017 72.3039 110.271 71.3882C109.866 71.3359 109.461 71.2901 109.057 71.2492C108.79 72.1162 108.432 73.8701 108.693 75.6307C106.277 76.9361 104.89 78.4876 104.289 79.3087C104.667 79.3814 105.046 79.4591 105.424 79.54C106.077 78.7034 107.582 77.1241 110.211 75.9608C110.21 75.9583 110.209 75.9576 110.208 75.9559Z" fill="#E31937"/>
<path d="M148.303 95.8096C148.841 95.9772 149.382 96.1388 149.923 96.2949C150.232 95.4568 151.277 93.134 154.352 91.7706C152.141 89.447 152.07 86.6531 152.146 85.3133C151.647 85.1564 151.147 84.9971 150.646 84.832C150.573 86.1514 150.64 88.8721 152.276 91.2853C149.496 92.8661 148.627 94.8832 148.303 95.8096Z" fill="#E31937"/>
<path d="M142.303 93.7342C142.817 93.9287 143.334 94.1199 143.851 94.3076C144.278 93.3993 145.532 91.1868 148.405 89.9999C146.301 87.5137 146.37 84.6748 146.497 83.393C146.011 83.2157 145.524 83.0359 145.037 82.8546C144.902 84.0881 144.795 86.8766 146.374 89.4616C143.777 90.8584 142.719 92.7791 142.303 93.7342Z" fill="#E31937"/>
<path d="M137.743 91.9229C138.232 91.02 139.688 88.7759 142.48 87.7172C140.628 85.2475 140.686 82.5848 140.842 81.246C140.366 81.0597 139.891 80.8725 139.415 80.6848C139.24 81.9705 139.103 84.5832 140.496 87.1248C137.932 88.4188 136.722 90.3804 136.262 91.3036C136.754 91.512 137.249 91.7187 137.743 91.9229Z" fill="#E31937"/>
<path d="M151.655 141.584C152.465 139.507 152.175 137.672 151.985 136.917C151.582 137.13 151.179 137.341 150.777 137.548C150.973 138.385 151.211 140.306 150.113 142.332C152.044 142.666 153.251 143.746 153.883 144.499C154.235 144.291 154.59 144.08 154.946 143.867C154.372 143.135 153.321 142.106 151.655 141.584Z" fill="#E31937"/>
<path d="M130.666 149.554C131.26 147.979 130.588 145.973 130.292 145.206C129.931 145.279 129.571 145.348 129.213 145.412C129.552 146.245 130.202 148.39 129.309 149.796C131.747 150.733 133.12 152.377 133.482 152.887C133.837 152.834 134.19 152.777 134.541 152.714C134.258 152.291 132.99 150.631 130.666 149.554Z" fill="#E31937"/>
<path d="M126.781 149.894C127.315 148.511 126.641 146.561 126.35 145.832C125.995 145.874 125.641 145.911 125.289 145.942C125.575 146.66 126.308 148.779 125.454 150.019C127.954 151.112 129.338 152.794 129.634 153.224C129.998 153.213 130.36 153.196 130.719 153.173C130.363 152.645 129.1 151.055 126.781 149.894Z" fill="#E31937"/>
<path d="M125.72 153.11C126.064 153.138 126.404 153.162 126.743 153.182C126.452 152.776 125.528 151.647 123.92 150.527C123.919 150.527 123.918 150.526 123.917 150.526L123.789 151.2C123.79 151.2 123.791 151.201 123.792 151.201C124.819 152.019 125.457 152.758 125.72 153.11Z" fill="#E31937"/>
<path d="M181.828 129.33C182.348 130.506 181.955 132.265 181.68 133.213C181.967 133.235 182.254 133.264 182.541 133.299C182.836 132.416 183.319 130.675 182.994 129.364C184.672 127.932 185.582 126.455 185.9 125.86C185.586 125.834 185.267 125.813 184.943 125.797C184.541 126.51 183.546 128.01 181.828 129.33Z" fill="#E31937"/>
<path d="M182.255 125.796C181.919 125.811 181.579 125.83 181.235 125.854C180.892 126.619 180.043 128.178 178.404 129.666C179.145 130.661 179.031 132.241 178.875 133.197C179.184 133.177 179.49 133.165 179.795 133.16C179.989 132.249 180.198 130.687 179.657 129.54C181.198 127.975 181.968 126.465 182.255 125.796Z" fill="#E31937"/>
<path d="M173.243 127.226C173.035 128.072 172.46 129.725 170.986 131.44C172.123 132.193 172.432 133.585 172.512 134.498C172.849 134.386 173.183 134.282 173.516 134.184C173.48 133.3 173.268 131.971 172.372 131.054C173.683 129.295 174.188 127.706 174.365 126.944C173.994 127.033 173.62 127.126 173.243 127.226Z" fill="#E31937"/>
<path d="M177.278 126.343C176.977 127.187 176.26 128.749 174.754 130.339C175.72 131.194 175.833 132.671 175.798 133.612C176.125 133.545 176.45 133.486 176.773 133.434C176.854 132.527 176.84 131.08 176.092 130.051C177.452 128.43 178.099 126.938 178.366 126.169C178.006 126.221 177.644 126.279 177.278 126.343Z" fill="#E31937"/>
<path d="M135.617 79.1777C135.152 78.9922 134.686 78.8077 134.22 78.6237C133.998 79.9262 133.807 82.4195 135.046 84.9552C132.641 86.0844 131.273 87.9618 130.719 88.9037C131.198 89.1146 131.678 89.3252 132.158 89.5361C132.793 88.5394 134.443 86.4683 136.985 85.6009C135.33 83.0968 135.425 80.5307 135.617 79.1777Z" fill="#E31937"/>
<path d="M130.349 77.1116C129.897 76.9383 129.444 76.766 128.993 76.5962C128.737 77.873 128.461 80.2529 129.579 82.627C127.201 83.7609 125.758 85.5387 125.164 86.4602C125.615 86.6571 126.066 86.8533 126.517 87.0518C127.154 86.1073 128.837 84.1376 131.443 83.2226C129.982 80.8796 130.11 78.4736 130.349 77.1116Z" fill="#E31937"/>
<path d="M125.088 75.1751C124.646 75.0207 124.204 74.8688 123.763 74.7199C123.473 76.0281 123.131 78.2697 124.104 80.4454C121.788 81.5653 120.293 83.2189 119.637 84.1299C120.063 84.303 120.491 84.478 120.918 84.6543C121.603 83.7313 123.301 81.9249 125.894 80.9919C124.655 78.8374 124.78 76.6202 125.088 75.1751Z" fill="#E31937"/>
<path d="M120.018 73.5303C119.583 73.4021 119.15 73.2771 118.717 73.1571C118.396 74.5606 118.069 76.554 118.843 78.42C116.488 79.5743 114.917 81.2074 114.242 82.0808C114.65 82.2238 115.058 82.3699 115.465 82.5186C116.157 81.6444 117.896 79.8955 120.559 78.9157C119.609 77.0508 119.646 75.1258 120.018 73.5303Z" fill="#E31937"/>
<path d="M115.099 72.2465C114.669 72.1509 114.24 72.0595 113.812 71.9743C113.452 73.5046 113.13 75.2709 113.709 76.8396C111.361 78.0046 109.733 79.5787 109.016 80.4277C109.41 80.537 109.803 80.6506 110.197 80.7666C110.939 79.9146 112.695 78.2814 115.351 77.2855C114.69 75.6999 114.63 74.0576 115.099 72.2465Z" fill="#E31937"/>
<path d="M155.823 139.261C156.842 136.997 156.615 135.047 156.492 134.425C156.094 134.655 155.695 134.881 155.297 135.105C155.424 135.907 155.534 137.866 154.289 139.974C156.048 140.369 157.077 141.467 157.613 142.254C157.957 142.045 158.304 141.833 158.652 141.62C158.17 140.86 157.291 139.836 155.823 139.261Z" fill="#E31937"/>
<path d="M160.053 136.867C161.191 134.634 161.187 132.822 161.096 131.903C160.693 132.107 160.289 132.314 159.884 132.528C159.952 133.231 159.97 135.284 158.527 137.546C160.118 137.997 160.98 139.107 161.421 139.926C161.768 139.713 162.111 139.506 162.453 139.305C162.064 138.519 161.344 137.493 160.053 136.867Z" fill="#E31937"/>
<path d="M164.292 134.391C165.504 132.307 165.67 130.498 165.678 129.799C165.284 129.963 164.888 130.132 164.491 130.306C164.464 131.13 164.218 132.981 162.812 134.971C164.325 135.546 165.005 136.835 165.306 137.69C165.649 137.506 165.99 137.327 166.327 137.154C166.069 136.324 165.509 135.138 164.292 134.391Z" fill="#E31937"/>
<path d="M169.057 128.508C168.93 129.367 168.499 131.082 167.09 132.891C168.435 133.566 168.923 134.939 169.107 135.822C169.449 135.672 169.787 135.527 170.122 135.389C169.98 134.532 169.596 133.25 168.522 132.408C169.753 130.543 170.114 128.885 170.214 128.118C169.83 128.243 169.445 128.372 169.057 128.508Z" fill="#E31937"/>
<path d="M147.301 143.829C148.056 141.811 147.689 139.929 147.48 139.186C147.089 139.372 146.699 139.557 146.31 139.737C146.526 140.546 146.866 142.531 145.805 144.5C147.847 144.914 149.106 146.132 149.712 146.883C150.055 146.695 150.4 146.504 150.747 146.31C150.186 145.576 149.077 144.424 147.301 143.829Z" fill="#E31937"/>
<path d="M143.061 145.722C143.747 143.806 143.329 141.907 143.102 141.149C142.723 141.309 142.343 141.465 141.965 141.617C142.2 142.422 142.614 144.442 141.611 146.318C143.811 146.829 145.136 148.24 145.683 148.953C146.023 148.791 146.364 148.625 146.705 148.455C146.19 147.752 145.007 146.414 143.061 145.722Z" fill="#E31937"/>
<path d="M138.86 147.398C139.547 145.51 138.971 143.484 138.745 142.836C138.373 142.967 138.002 143.095 137.631 143.22C137.865 143.906 138.459 146.064 137.441 147.877C139.773 148.533 141.123 150.084 141.589 150.719C141.93 150.589 142.27 150.454 142.611 150.315C142.167 149.688 140.949 148.215 138.86 147.398Z" fill="#E31937"/>
<path d="M134.703 148.651C135.329 146.956 134.755 144.99 134.464 144.199C134.098 144.301 133.734 144.399 133.37 144.495C133.718 145.488 134.209 147.506 133.314 149.012C135.795 149.836 137.168 151.535 137.524 152.047C137.869 151.954 138.214 151.855 138.558 151.753C138.235 151.271 136.982 149.625 134.703 148.651Z" fill="#E31937"/>
<path d="M192.699 155.982H191.797V152.468H191.775L190.498 155.982H189.625L188.386 152.468H188.368V155.982H187.465V151.565H189.028L190.055 154.45H190.077L191.147 151.565H192.699V155.982ZM186.656 152.353H185.324V155.982H184.42V152.353H183.09V151.565H186.656V152.353Z" fill="#002B5C"/>
</g>
</g>
<defs>
<clipPath id="clip0_1034_3760">
<rect width="200" height="167.32" fill="white"/>
</clipPath>
</defs>
</svg>
