<svg width="60" height="60" viewBox="0 0 60 60" fill="none" xmlns="http://www.w3.org/2000/svg">
<g clip-path="url(#clip0_6930_81876)">
<path d="M15.2046 52.9766V56.6584C15.2046 58.4993 16.7046 59.9311 18.4773 59.9311H48.9546C50.7955 59.9311 52.2273 58.4311 52.2273 56.6584V52.9766H15.2046Z" fill="black"/>
<path d="M52.2273 7.02273V3.27273C52.2273 1.43182 50.7273 0 48.9546 0H18.4773C16.6364 0 15.2046 1.5 15.2046 3.27273V6.95455L52.2273 7.02273Z" fill="black"/>
<path d="M52.2273 7.02344H15.2046V52.978H52.2273V7.02344Z" fill="#539C2C"/>
<path d="M33.75 58.3642C34.6914 58.3642 35.4545 57.601 35.4545 56.6596C35.4545 55.7182 34.6914 54.9551 33.75 54.9551C32.8086 54.9551 32.0454 55.7182 32.0454 56.6596C32.0454 57.601 32.8086 58.3642 33.75 58.3642Z" fill="white"/>
<path d="M31.0908 19.7725C31.0908 18.3407 32.2499 17.1816 33.7499 17.1816C35.2499 17.1816 36.3408 18.2725 36.3408 19.7725C36.3408 21.2725 35.2499 22.3635 33.7499 22.3635C32.2499 22.3635 31.0908 21.2044 31.0908 19.7725ZM36.0681 40.4657C36.0681 41.7649 35.0149 42.818 33.7158 42.818C32.4167 42.818 31.3635 41.7649 31.3635 40.4657V27.7839C31.3635 26.4848 32.4167 25.4316 33.7158 25.4316C35.0149 25.4316 36.0681 26.4848 36.0681 27.7839V40.4657Z" fill="white"/>
</g>
<defs>
<clipPath id="clip0_6930_81876">
<rect width="60" height="60" fill="white"/>
</clipPath>
</defs>
</svg>
