<svg width="75" height="51" viewBox="0 0 75 51" fill="none" xmlns="http://www.w3.org/2000/svg">
<circle cx="52.1611" cy="12.25" r="12.25" fill="#539C2C"/>
<ellipse cx="19.9612" cy="14.7" rx="9.45" ry="11.2" fill="#2B5238"/>
<path d="M52.1611 30.1C35.9702 29.847 30.5603 40.8132 29.581 47.9226C29.4208 49.0856 30.3641 50.05 31.5381 50.05H72.7791C73.9536 50.05 74.8734 49.0937 74.6835 47.9347C73.8517 42.8574 69.9937 30.3786 52.1611 30.1Z" fill="#539C2C"/>
<path d="M30.7543 34.5663C25.4156 39.8313 24.7058 44.0667 25.3293 48.0814C25.541 49.4448 24.5636 50.751 23.1839 50.7499C15.8638 50.7445 0.421194 50.7039 0.360938 50.4008C-2.42287 36.3973 11.5627 29.7506 19.6127 29.4006C24.2293 29.1999 28.1014 30.4261 30.4827 31.6094C31.6367 32.1828 31.6718 33.6615 30.7543 34.5663Z" fill="#2B5238"/>
</svg>
