<svg width="70" height="70" viewBox="0 0 70 70" fill="none" xmlns="http://www.w3.org/2000/svg">
<path d="M32.7378 67.3874C34.1498 68.1243 35.8456 68.1149 37.2505 67.3645C56.8093 56.9169 59.7918 49.3625 59.7918 27.709V13.7466C59.7918 11.6266 58.455 9.73716 56.4559 9.03161L36.6643 2.04631C35.5874 1.66625 34.4129 1.66625 33.3361 2.04631L13.5444 9.03161C11.5453 9.73716 10.2085 11.6266 10.2085 13.7466V27.709C10.2085 49.3581 13.1898 57.1848 32.7378 67.3874Z" fill="white" stroke="#303C42" stroke-width="2" stroke-linecap="round" stroke-linejoin="round"/>
<path d="M34.9998 35.0007V60.1731C34.9998 60.9267 35.8035 61.4077 36.4646 61.0462C49.7169 53.7987 52.9398 48.5402 53.884 36.0671C53.9275 35.4914 53.4697 35.0007 52.8923 35.0007H34.9998ZM16.7079 14.0565C16.3085 14.1978 16.0415 14.5755 16.0415 14.9992V34.0007C16.0415 34.5529 16.4892 35.0007 17.0415 35.0007H34.9998V8.99859C34.9998 8.30829 34.317 7.8256 33.6663 8.05587L16.7079 14.0565Z" fill="#539C2C"/>
<path d="M34.9998 35.0007V60.1731C34.9998 60.9267 35.8035 61.4077 36.4646 61.0462C49.7169 53.7987 52.9398 48.5402 53.884 36.0671C53.9275 35.4914 53.4696 35.0007 52.8923 35.0007H34.9998ZM34.9998 35.0007H17.0415C16.4892 35.0007 16.0415 34.5529 16.0415 34.0007V14.9992C16.0415 14.5755 16.3085 14.1978 16.7079 14.0565L33.6663 8.05587C34.317 7.8256 34.9998 8.30829 34.9998 8.99859V35.0007Z" stroke="#303C42" stroke-width="2" stroke-linecap="round" stroke-linejoin="round"/>
</svg>
